<?xml version="1.0" standalone="no"?>
<!DOCTYPE svg PUBLIC "-//W3C//DTD SVG 20010904//EN"
 "http://www.w3.org/TR/2001/REC-SVG-20010904/DTD/svg10.dtd">
<svg version="1.0" xmlns="http://www.w3.org/2000/svg"
 width="1200.000000pt" height="465.000000pt" viewBox="0 0 1200.000000 465.000000"
 preserveAspectRatio="xMidYMid meet">

<g transform="translate(0.000000,465.000000) scale(0.100000,-0.100000)"
fill="#000000" stroke="none">
<path d="M3330 4643 c-263 -26 -627 -165 -885 -339 -292 -195 -593 -496 -774
-774 -84 -129 -183 -334 -229 -472 -61 -185 -77 -291 -76 -500 l1 -177 -51
-15 c-258 -73 -465 -51 -670 72 -98 58 -229 184 -288 277 -177 277 -204 560
-80 835 73 163 226 343 390 460 111 79 295 170 441 219 63 21 110 40 105 43
-5 3 -58 11 -119 17 -207 22 -417 -19 -595 -116 -260 -142 -424 -360 -482
-643 -41 -197 -2 -442 105 -655 204 -408 623 -672 1017 -641 75 7 193 27 243
42 11 4 17 0 17 -12 0 -32 80 -215 124 -283 56 -87 140 -171 225 -226 157
-101 330 -127 516 -78 76 20 239 96 330 155 76 49 258 192 289 226 33 38 34
24 6 -61 -16 -45 -31 -105 -35 -132 -17 -111 -223 -583 -336 -767 -95 -157
-163 -243 -274 -353 -208 -205 -418 -288 -725 -286 -492 3 -955 349 -1081 807
-65 238 19 481 198 572 103 53 267 68 388 37 137 -36 258 -135 318 -262 30
-64 32 -75 32 -178 0 -104 -2 -114 -33 -180 -66 -140 -164 -234 -316 -305 -44
-20 -74 -40 -68 -44 21 -13 191 -23 246 -14 211 33 366 223 366 447 0 284
-224 539 -544 621 -96 24 -252 27 -344 5 -288 -68 -430 -335 -348 -657 120
-473 517 -833 1031 -934 119 -24 362 -24 500 0 423 72 811 352 984 711 26 55
52 111 58 125 10 24 11 23 38 -30 36 -72 171 -205 250 -247 75 -39 214 -85
325 -109 47 -10 86 -18 88 -20 2 -1 -29 -179 -67 -396 -39 -216 -71 -397 -71
-401 0 -4 53 -7 118 -7 l119 0 52 292 c28 161 61 344 73 406 l20 112 39 0
c130 0 348 85 539 210 412 270 622 817 490 1272 -33 114 -104 229 -196 321
-102 101 -184 137 -319 138 -130 1 -220 -30 -331 -112 -90 -67 -187 -215 -233
-360 -16 -48 -201 -1265 -201 -1319 0 -11 -102 16 -159 43 -95 44 -187 174
-227 322 -25 93 -30 325 -10 464 22 147 67 319 107 412 78 178 206 326 354
408 89 50 105 64 105 98 0 23 -2 24 -62 17 -107 -11 -203 -41 -322 -99 -138
-67 -193 -106 -378 -272 -355 -318 -532 -455 -686 -532 -233 -116 -438 -98
-583 51 -92 95 -139 215 -146 374 l-6 112 79 52 c189 126 282 200 474 376 143
131 330 328 455 483 l76 94 -7 -79 c-20 -255 129 -462 366 -504 238 -43 506
89 757 373 227 256 346 509 379 804 l7 63 61 -33 c135 -72 205 -174 229 -334
19 -128 -30 -284 -132 -422 -50 -67 -174 -192 -269 -271 -64 -53 -78 -75 -61
-96 20 -24 54 -16 131 34 281 184 442 434 439 682 -2 223 -108 396 -296 484
-44 21 -86 41 -94 45 -7 4 -22 40 -32 81 -20 79 -63 170 -107 228 -60 79 -205
166 -327 196 -120 30 -296 42 -425 29z m346 -88 c162 -31 301 -126 362 -247
31 -62 60 -153 51 -162 -2 -2 -38 2 -79 9 -317 57 -614 -44 -979 -333 -113
-89 -311 -286 -441 -437 -266 -309 -461 -511 -639 -658 -86 -72 -225 -173
-270 -197 l-23 -12 7 54 c12 86 61 274 105 403 114 336 358 715 664 1033 410
425 854 621 1242 547z m368 -479 l51 -12 -3 -69 c-11 -289 -164 -598 -424
-856 -195 -193 -428 -299 -592 -268 -194 36 -309 239 -263 464 39 189 171 367
397 534 252 187 571 266 834 207z m342 -1627 c87 -41 184 -194 215 -339 17
-81 17 -296 0 -404 -21 -128 -39 -183 -98 -305 -53 -108 -65 -124 -168 -227
-94 -95 -123 -117 -196 -154 -54 -26 -120 -49 -175 -60 -49 -10 -90 -18 -90
-17 -6 7 150 1101 166 1171 30 123 74 234 112 280 60 73 150 94 234 55z"/>
<path d="M5886 3405 c-98 -27 -177 -76 -266 -165 -87 -86 -128 -150 -173 -267
-22 -58 -22 -64 -25 -809 -3 -844 -4 -836 67 -979 135 -273 455 -419 741 -339
158 45 311 171 387 319 64 126 65 132 72 452 6 275 7 293 27 320 25 34 90 73
122 73 22 0 23 3 20 58 l-3 57 -307 3 -308 2 0 -60 c0 -50 3 -60 18 -60 9 0
36 -9 59 -19 74 -34 74 -33 71 -439 l-3 -357 -25 -49 c-14 -27 -45 -67 -70
-89 -109 -97 -242 -118 -363 -58 -87 42 -171 132 -192 205 -14 46 -15 166 -13
957 l3 904 23 45 c34 66 79 109 147 141 114 55 242 32 332 -58 57 -57 76 -104
81 -203 2 -47 11 -98 19 -113 18 -36 98 -87 135 -87 106 0 164 92 133 212 -61
241 -307 420 -574 417 -47 0 -108 -7 -135 -14z"/>
<path d="M11582 3399 c-111 -55 -162 -188 -113 -295 61 -134 221 -181 339 -99
83 57 119 158 92 256 -13 48 -75 118 -124 140 -56 26 -140 25 -194 -2z"/>
<path d="M9772 3348 c3 -51 4 -52 38 -59 22 -5 49 -22 72 -48 l38 -40 0 -1075
0 -1075 -31 -36 c-21 -23 -47 -40 -76 -48 l-44 -11 3 -51 3 -50 305 0 305 0 3
51 3 52 -38 7 c-52 9 -98 40 -112 73 -8 20 -11 211 -9 697 3 665 3 670 25 710
24 45 95 115 140 139 17 8 60 20 96 26 70 13 141 4 196 -24 46 -24 107 -99
130 -160 21 -56 21 -68 21 -702 0 -573 -2 -650 -16 -680 -17 -35 -60 -67 -106
-78 -26 -6 -28 -10 -28 -61 l0 -55 298 2 297 3 3 51 3 51 -40 11 c-41 13 -87
58 -96 95 -3 12 -9 288 -14 612 l-8 590 -27 82 c-47 144 -150 274 -270 342
-98 55 -148 66 -301 65 -146 0 -137 2 -287 -59 -17 -7 -18 14 -18 349 l0 356
-231 0 -230 0 3 -52z"/>
<path d="M7465 2749 c-76 -15 -203 -81 -268 -139 -93 -84 -164 -202 -192 -322
-22 -94 -22 -927 0 -1012 51 -195 218 -366 420 -428 90 -28 233 -30 320 -4
102 30 194 85 270 161 106 105 166 223 181 355 l7 60 -75 0 -75 0 -6 -57 c-12
-117 -123 -271 -243 -335 -62 -34 -153 -58 -216 -58 -110 0 -225 76 -278 185
l-25 50 -3 393 -3 392 460 0 461 0 0 113 c0 135 -19 228 -63 322 -68 142 -188
250 -337 301 -85 30 -246 41 -335 23z m228 -145 c63 -21 130 -83 164 -152 26
-52 28 -68 31 -189 l4 -133 -307 0 -307 0 4 128 c3 104 8 136 27 177 36 81
114 149 201 176 43 13 135 10 183 -7z"/>
<path d="M8365 2756 c-5 -2 -22 -7 -37 -10 -27 -6 -28 -9 -28 -71 l0 -64 33 6
c43 7 94 -19 107 -53 6 -16 10 -429 10 -1070 0 -860 -2 -1050 -14 -1077 -16
-40 -69 -86 -107 -94 -29 -5 -29 -7 -29 -74 l0 -69 295 0 295 0 0 70 c0 66 -1
70 -22 70 -33 0 -85 35 -108 72 -18 31 -20 51 -20 282 0 195 3 247 13 243 117
-52 145 -60 243 -65 131 -6 206 8 314 61 113 55 209 149 266 262 70 136 69
128 69 640 0 510 -1 523 -68 650 -111 213 -386 336 -625 280 -77 -18 -165 -62
-213 -107 l-36 -33 -44 49 c-56 63 -126 96 -216 101 -37 3 -72 3 -78 1z m821
-171 c39 -21 71 -47 96 -80 70 -91 69 -85 66 -726 l-3 -574 -27 -50 c-82 -155
-246 -216 -393 -147 -69 33 -126 88 -158 152 -22 45 -22 50 -25 610 -4 613 -2
636 49 713 32 49 113 109 169 126 64 19 161 9 226 -24z"/>
<path d="M11377 2724 c-4 -4 -7 -29 -7 -55 0 -45 2 -49 28 -54 48 -10 95 -39
114 -70 17 -28 18 -70 18 -758 0 -657 -2 -732 -16 -757 -20 -33 -57 -56 -107
-65 l-38 -7 3 -52 3 -51 313 -3 312 -2 0 54 c0 53 -1 55 -32 61 -43 9 -95 41
-111 68 -9 17 -13 220 -17 857 l-5 835 -226 3 c-124 1 -228 -1 -232 -4z"/>
</g>
</svg>
