<?xml version="1.0" standalone="no"?>
<!DOCTYPE svg PUBLIC "-//W3C//DTD SVG 20010904//EN"
 "http://www.w3.org/TR/2001/REC-SVG-20010904/DTD/svg10.dtd">
<svg version="1.0" xmlns="http://www.w3.org/2000/svg"
 width="900.000000pt" height="956.000000pt" viewBox="0 0 900.000000 956.000000"
 preserveAspectRatio="xMidYMid meet">

<g transform="translate(0.000000,956.000000) scale(0.100000,-0.100000)"
fill="#000000" stroke="none">
<path d="M4150 9464 c-518 -47 -1033 -178 -1480 -376 -1143 -508 -2033 -1458
-2463 -2628 -69 -187 -162 -516 -183 -648 -4 -24 -11 -45 -15 -48 -5 -3 -9
-392 -9 -870 0 -699 3 -874 14 -912 7 -26 32 -124 55 -218 261 -1077 941
-2049 1881 -2686 624 -423 1307 -673 2090 -765 185 -21 736 -24 915 -5 618 68
1112 209 1617 463 660 331 1190 774 1640 1369 333 441 607 1000 738 1505 17
66 35 128 40 137 13 23 14 2171 1 2196 -5 9 -21 64 -37 122 -210 802 -692
1591 -1319 2163 -724 660 -1584 1057 -2565 1183 -90 12 -229 17 -500 19 -206
1 -395 1 -420 -1z m1475 -1629 c187 -39 310 -107 413 -227 66 -78 118 -192
136 -303 4 -22 10 -45 14 -51 4 -6 52 -32 107 -58 217 -105 328 -287 329 -536
0 -201 -82 -372 -266 -558 -85 -85 -274 -222 -308 -222 -74 0 -67 43 18 117
198 171 279 259 351 380 62 106 85 190 85 308 -1 193 -74 320 -236 414 -61 34
-78 34 -78 -3 0 -49 -32 -205 -61 -301 -77 -249 -240 -494 -474 -715 -148
-140 -289 -224 -434 -261 -111 -28 -266 -23 -353 10 -187 72 -298 247 -298
468 0 51 -4 94 -9 97 -5 3 -35 -27 -67 -67 -279 -345 -629 -673 -949 -887 -60
-41 -113 -79 -117 -84 -12 -17 -9 -202 3 -254 7 -26 29 -84 50 -130 50 -109
124 -185 234 -237 75 -37 83 -38 179 -38 121 0 177 15 311 83 162 83 353 227
643 488 205 185 353 306 400 328 21 9 82 38 137 64 122 58 202 80 297 83 69 2
73 1 76 -21 5 -32 -12 -49 -88 -87 -186 -94 -340 -276 -423 -500 -67 -179
-117 -454 -117 -635 0 -77 21 -228 39 -288 20 -66 82 -178 125 -228 62 -70
223 -149 269 -131 8 3 17 26 20 54 7 50 59 420 76 533 5 36 14 99 20 140 6 41
17 118 26 170 8 52 26 174 40 270 29 204 35 232 66 308 117 291 326 452 586
452 141 0 255 -52 364 -167 112 -118 174 -231 216 -393 20 -80 24 -119 24
-245 0 -163 -16 -265 -67 -406 -75 -210 -242 -452 -393 -573 -214 -171 -513
-306 -675 -306 -66 0 -57 26 -122 -350 -14 -80 -31 -176 -39 -215 -7 -38 -19
-101 -25 -140 -7 -38 -18 -90 -24 -115 l-12 -45 -123 -3 -124 -3 6 48 c3 26
17 116 32 198 14 83 30 173 34 200 5 28 23 130 41 228 18 98 31 180 28 182 -2
2 -58 18 -123 35 -66 17 -147 40 -180 52 -179 61 -310 164 -402 311 -27 45
-30 46 -45 30 -8 -10 -23 -38 -32 -63 -48 -123 -161 -286 -286 -411 -143 -143
-350 -274 -539 -341 -279 -99 -585 -116 -896 -49 -73 15 -199 62 -290 107
-302 152 -541 400 -676 704 -128 289 -119 525 29 704 108 130 269 196 480 196
138 0 237 -24 368 -90 259 -129 404 -346 404 -601 0 -53 -6 -115 -15 -142 -52
-174 -192 -306 -355 -337 -100 -19 -275 -8 -275 18 0 6 32 27 70 46 272 131
422 392 360 625 -54 203 -206 335 -432 377 -84 15 -99 15 -185 0 -172 -29
-290 -113 -362 -257 -102 -204 -55 -458 137 -744 97 -144 285 -306 457 -394
190 -98 362 -141 565 -141 506 0 859 273 1173 907 85 172 214 481 231 553 30
131 43 184 56 220 8 22 10 40 6 40 -5 0 -53 -36 -106 -81 -488 -403 -891 -463
-1219 -183 -118 101 -205 232 -262 399 -15 44 -30 84 -34 88 -4 5 -52 -1 -106
-12 -117 -25 -324 -29 -424 -7 -179 38 -329 112 -514 254 -240 185 -436 506
-477 782 -15 103 -6 322 16 405 26 95 108 253 178 341 86 108 245 234 384 306
124 64 196 90 306 113 128 25 383 20 423 -9 14 -11 5 -17 -62 -40 -141 -50
-282 -117 -392 -185 -134 -83 -195 -131 -300 -234 -196 -191 -307 -399 -331
-617 -40 -360 201 -765 564 -947 185 -94 400 -111 621 -49 l79 22 7 224 c3
124 11 248 16 275 100 500 400 963 907 1402 348 300 709 486 1090 560 82 17
400 15 480 -2z m-1904 -5469 c63 -27 119 -99 119 -152 0 -21 -28 -54 -46 -54
-24 0 -54 43 -54 78 0 42 -46 92 -85 92 -38 0 -79 -24 -93 -55 -9 -18 -12
-120 -12 -350 l0 -323 25 -31 c37 -44 85 -57 130 -35 55 26 65 55 65 195 0
119 -1 124 -26 150 -14 15 -23 32 -20 38 4 7 43 11 97 11 101 0 122 -14 75
-51 -25 -20 -26 -24 -26 -124 0 -115 -11 -153 -62 -211 -81 -92 -225 -86 -307
13 -47 57 -53 106 -49 403 3 261 3 266 28 310 51 91 155 132 241 96z m1840 -5
c18 -14 24 -29 24 -61 0 -48 -29 -80 -72 -80 -34 0 -73 42 -73 80 0 38 39 80
73 80 14 0 35 -9 48 -19z m-526 -13 c3 -13 6 -66 8 -118 2 -79 5 -94 17 -91
88 20 148 11 196 -31 67 -59 71 -78 79 -331 7 -203 10 -228 26 -243 39 -36 25
-44 -76 -44 -103 0 -113 6 -70 46 l25 23 0 228 c0 210 -2 231 -20 261 -11 18
-31 37 -44 43 -35 17 -92 3 -116 -28 -19 -24 -20 -39 -20 -274 0 -238 1 -249
20 -259 11 -6 20 -17 20 -25 0 -12 -18 -15 -95 -15 -77 0 -95 3 -95 15 0 8 9
19 20 25 19 10 20 21 20 394 0 370 -1 384 -20 401 -38 34 -26 45 50 45 64 0
70 -2 75 -22z m-806 -208 c67 -19 121 -89 136 -178 13 -81 12 -81 -148 -84
l-142 -3 -3 -141 c-3 -140 -2 -142 24 -173 22 -27 32 -31 73 -31 39 0 54 6 87
34 24 21 46 51 54 75 9 28 19 41 32 41 42 0 10 -98 -51 -153 -94 -85 -238 -54
-298 63 -21 41 -23 57 -23 220 0 163 2 178 24 226 43 93 134 133 235 104z
m282 -16 c18 -16 22 -16 65 5 90 45 199 8 243 -83 21 -42 22 -56 19 -238 -3
-192 -3 -193 -31 -234 -49 -72 -141 -105 -229 -81 l-28 7 0 -89 c0 -80 2 -92
21 -105 12 -8 19 -22 17 -33 -3 -16 -15 -18 -91 -21 -102 -3 -116 8 -73 59
l26 31 0 368 0 368 -27 20 c-24 18 -26 22 -13 37 17 21 73 15 101 -11z m1045
3 c2 -7 6 -137 7 -289 l2 -277 28 -29 c15 -15 24 -31 20 -35 -3 -4 -48 -7
-100 -7 -72 0 -93 3 -93 14 0 7 10 20 23 28 22 15 22 19 25 272 l3 256 -27 25
c-41 38 -27 55 46 55 41 0 62 -4 66 -13z"/>
<path d="M5345 7763 c-89 -9 -195 -36 -294 -75 -262 -102 -455 -242 -741 -535
-417 -425 -659 -824 -798 -1308 -25 -85 -62 -257 -62 -285 0 -30 18 -25 95 27
265 177 537 441 929 903 257 302 551 547 822 686 244 124 437 159 663 119 45
-8 87 -12 93 -9 24 15 -28 159 -92 254 -63 92 -195 175 -327 205 -64 15 -226
25 -288 18z"/>
<path d="M5645 7208 c-22 -5 -69 -16 -105 -25 -203 -47 -417 -174 -599 -354
-177 -175 -261 -343 -261 -523 0 -136 34 -229 111 -303 120 -117 260 -133 470
-52 138 53 273 157 422 324 216 243 337 488 377 762 13 92 13 140 -1 148 -49
31 -320 46 -414 23z"/>
<path d="M6205 5453 c-116 -60 -193 -249 -235 -573 -12 -85 -25 -188 -30 -227
-6 -40 -15 -108 -20 -150 -6 -43 -17 -125 -26 -183 -8 -58 -19 -136 -24 -175
-4 -38 -16 -121 -25 -183 -9 -62 -14 -116 -11 -119 8 -9 141 16 205 38 83 29
190 101 278 188 96 94 118 123 166 213 103 195 141 357 141 608 0 174 -18 262
-77 374 -41 77 -121 164 -172 187 -49 23 -130 24 -170 2z"/>
<path d="M4123 2090 c-36 -15 -55 -53 -51 -107 l3 -48 88 -3 c82 -3 88 -2 96
19 4 12 4 41 0 63 -12 69 -71 102 -136 76z"/>
<path d="M4604 2090 c-51 -20 -54 -38 -54 -278 l0 -224 31 -29 c52 -48 120
-35 154 31 12 23 15 71 15 225 0 154 -3 202 -15 225 -28 53 -77 72 -131 50z"/>
</g>
</svg>
