<?xml version="1.0" standalone="yes"?>
<svg xmlns="http://www.w3.org/2000/svg" width="880" height="407">
<path style="fill:#f6f6f6; stroke:none;" d="M0 0L0 407L880 407L880 0L0 0z"/>
<path style="fill:#d4ab99; stroke:none;" d="M202 40L202 41L224 48C218.202 41.0027 210.574 40.0009 202 40M656.667 40.3333L657.333 40.6667L656.667 40.3333z"/>
<path style="fill:#7b7359; stroke:none;" d="M658 40L658 41L661 41L658 40z"/>
<path style="fill:#413003; stroke:none;" d="M661 40.429C637.818 43.6383 625.179 73.9438 645.09 90.6065C651.919 96.3209 662.529 96.8727 671 95.8148C705.632 91.4902 696.5 35.5144 661 40.429z"/>
<path style="fill:#7b7359; stroke:none;" d="M668 40L668 41L671 41L668 40z"/>
<path style="fill:#d4ab99; stroke:none;" d="M671 40L671 41L674 41L671 40M205 115L205 114C192.994 113.095 181.318 95.0046 173.015 87.0895C170.737 84.9185 163.229 80.013 163.769 76.385C164.278 72.9729 169.707 69.2926 172 67C180.345 58.6573 189.452 45.6875 201 42C191.43 39.3847 176.132 60.8648 170 67C167.576 69.4247 162.207 73.1883 162.207 77C162.207 81.1009 168.383 85.3831 171 88C179.855 96.8552 191.652 114.842 205 115z"/>
<path style="fill:#ed5235; stroke:none;" d="M220 168C216.558 183.251 218.931 201.409 219.139 217C219.296 228.796 217.607 241.279 220.109 252.91C222.57 264.351 236.619 268.221 233.1 283C226.542 310.54 185.33 310.469 182.174 281C181.38 273.589 183.965 266.429 189.105 261.043C191.892 258.123 196.583 256.097 197.682 251.957C199.883 243.667 198 232.57 198 224C198 206.441 202.146 182.981 197.682 166.04C195.967 159.533 186.883 155.636 183.905 149C180.867 142.23 184.345 135.739 182.447 129.289C179.608 119.643 163.214 109.243 156.285 102.083C154.019 99.7406 150.278 93.9896 146.675 93.8279C143.617 93.6906 140.951 97.0901 139 99.0046C132.945 104.946 126.998 111.002 121 117L64 174C56.3748 181.625 44.1792 190.124 41.3511 201C36.6404 219.116 56.8389 231.463 67.439 243.089C98.9676 277.667 133.744 311.386 167.855 343.482C179.544 354.481 195.327 379.12 214 372.451C223.33 369.119 230.194 359.806 237 353L280 310L351 239C359.615 230.385 373.967 220.676 373.54 207C373.014 190.128 350.021 175.011 339.075 164C310.447 135.201 281.862 106.322 252.925 77.8341C242.009 67.0876 229.351 48.3271 215 42.483C198.204 35.6429 186.427 51.5729 176 62C172.365 65.6351 164.929 70.7215 163.752 75.9606C162.656 80.8353 172.023 87.0472 175.001 90.0038C182.095 97.048 190.01 108.477 199 112.972C205.403 116.174 213.18 113.18 219.961 116.821C227.508 120.874 232.811 129.537 233.66 138C234.132 142.701 232.052 146.683 235.279 150.83C243.254 161.083 256.159 175.68 267.285 182.471C271.869 185.269 279.578 182.763 285 184.444C299.147 188.828 306.775 205.483 300.891 219C293.89 235.084 272.832 239.571 260.043 227.812C254.893 223.076 251.62 216.02 251.457 209C251.381 205.739 253.065 202.157 251.802 199C250.233 195.079 245.913 191.913 243 189C236.106 182.105 228.903 172.152 220 168z"/>
<path style="fill:#d4ab99; stroke:none;" d="M652 41L653 42L652 41z"/>
<path style="fill:#7b7359; stroke:none;" d="M653.667 41.3333L654.333 41.6667L653.667 41.3333M674.667 41.3333L675.333 41.6667L674.667 41.3333z"/>
<path style="fill:#d4ab99; stroke:none;" d="M676 41L677 42L676 41M649 42L650 43L649 42z"/>
<path style="fill:#7b7359; stroke:none;" d="M650 42L651 43L650 42M677 42L678 43L677 42z"/>
<path style="fill:#d4ab99; stroke:none;" d="M678.667 42.3333L679.333 42.6667L678.667 42.3333M647 43L648 44L647 43z"/>
<path style="fill:#7b7359; stroke:none;" d="M648 43L649 44L648 43z"/>
<path style="fill:#d4ab99; stroke:none;" d="M680 43L681 44L680 43z"/>
<path style="fill:#7b7359; stroke:none;" d="M646 44L647 45L646 44M681 44L682 45L681 44z"/>
<path style="fill:#d4ab99; stroke:none;" d="M682 44L683 45L682 44M644 45L642 48L644 45z"/>
<path style="fill:#7b7359; stroke:none;" d="M645 45L646 46L645 45z"/>
<path style="fill:#d4ab99; stroke:none;" d="M683 45L684 46L683 45z"/>
<path style="fill:#7b7359; stroke:none;" d="M644 46L645 47L644 46M684 46L685 47L684 46M643 47L644 48L643 47M685 47L686 48L685 47z"/>
<path style="fill:#d4ab99; stroke:none;" d="M641 48L640 50L641 48z"/>
<path style="fill:#7b7359; stroke:none;" d="M686 48L687 49L686 48z"/>
<path style="fill:#d4ab99; stroke:none;" d="M224 49L231 56L224 49z"/>
<path style="fill:#7b7359; stroke:none;" d="M641 49L642 50L641 49M687 49L688 50L687 49M640 50L641 51L640 50z"/>
<path style="fill:#d4ab99; stroke:none;" d="M688 50L690 52L688 50M639 51L638 53L639 51z"/>
<path style="fill:#7b7359; stroke:none;" d="M688 51L689 52L688 51M639 52L640 53L639 52M689 52L690 53L689 52M638.333 53.6667L638.667 54.3333L638.333 53.6667z"/>
<path style="fill:#d4ab99; stroke:none;" d="M690 53L691 54L690 53M637.333 54.6667L637.667 55.3333L637.333 54.6667z"/>
<path style="fill:#7b7359; stroke:none;" d="M690 54L691 55L690 54M637 56L638 57L637 56z"/>
<path style="fill:#d4ab99; stroke:none;" d="M691 56L692 57L691 56M232 57L236 61L232 57M636.333 57.6667L636.667 58.3333L636.333 57.6667z"/>
<path style="fill:#7b7359; stroke:none;" d="M691 57L692 58L691 57M636.333 59.6667L636.667 60.3333L636.333 59.6667z"/>
<path style="fill:#d4ab99; stroke:none;" d="M692 59L693 60L692 59z"/>
<path style="fill:#7b7359; stroke:none;" d="M692 60L692 64L693 64L692 60z"/>
<path style="fill:#d4ab99; stroke:none;" d="M236 61L237 62L236 61M237 62L238 63L237 62M238 63L239 64L238 63M635 63L635 67L636 67L635 63M693 64L693 72L694 72L693 64M240 65L247 72L240 65z"/>
<path style="fill:#7b7359; stroke:none;" d="M635.333 67.6667L635.667 68.3333L635.333 67.6667z"/>
<path style="fill:#d4ab99; stroke:none;" d="M635 69L635 74L636 74L635 69M753 70L754 71L753 70z"/>
<path style="fill:#7b7359; stroke:none;" d="M753 74L754 74L754 71L783 71L783 116L784 116L784 70C777.081 70 755.496 66.4786 753 74z"/>
<path style="fill:#413003; stroke:none;" d="M754 71C751.049 86.6651 749.048 104.101 734.999 114.211C729.485 118.18 715.633 118.961 712.028 123.6C708.2 128.524 711 143.865 711 150C716.477 150 730.306 147.513 734.397 151.603C737.407 154.614 736 162.12 736 166L736 204C736 229.968 729.251 270.966 759 283.535C764.464 285.844 770.137 287.013 776 287.715C783.008 288.553 790.974 288.51 798 287.83C808.504 286.814 819.182 283.993 829 280.189C831.848 279.085 837.119 277.828 838.303 274.61C839.615 271.045 836.423 265.376 835.344 262C834.291 258.705 833.728 252.059 830.49 250.118C827.275 248.191 821.312 251.273 818 251.985C808.454 254.04 794.063 254.813 787.649 245.981C783.73 240.586 784.247 234.265 783.424 228C781.127 210.501 783 191.649 783 174C783 168.721 780.505 154.42 785.434 151.028C788.519 148.904 794.443 150 798 150L831 150L831 119L784 119L783 71L754 71z"/>
<path style="fill:#d4ab99; stroke:none;" d="M248 73L254 79L248 73z"/>
<path style="fill:#7b7359; stroke:none;" d="M692 73L692 76L693 76L692 73M636.333 75.6667L636.667 76.3333L636.333 75.6667M162 76L163 77L162 76z"/>
<path style="fill:#d4ab99; stroke:none;" d="M692 76L693 77L692 76M752 76L752 79L753 79L752 76M636.333 77.6667L636.667 78.3333L636.333 77.6667z"/>
<path style="fill:#7b7359; stroke:none;" d="M691.333 78.6667L691.667 79.3333L691.333 78.6667z"/>
<path style="fill:#d4ab99; stroke:none;" d="M254 79L255 80L254 79z"/>
<path style="fill:#7b7359; stroke:none;" d="M637 79L638 80L637 79M752 79L753 80L752 79z"/>
<path style="fill:#d4ab99; stroke:none;" d="M637.333 80.6667L637.667 81.3333L637.333 80.6667M256 81L257 82L256 81z"/>
<path style="fill:#7b7359; stroke:none;" d="M690 81L691 82L690 81z"/>
<path style="fill:#d4ab99; stroke:none;" d="M257 82L258 83L257 82z"/>
<path style="fill:#7b7359; stroke:none;" d="M638 82L639 83L638 82z"/>
<path style="fill:#d4ab99; stroke:none;" d="M690 82L691 83L690 82M751.333 82.6667L751.667 83.3333L751.333 82.6667M258 83L259 84L258 83M638 83L639 84L638 83z"/>
<path style="fill:#7b7359; stroke:none;" d="M689 83L690 84L689 83z"/>
<path style="fill:#d4ab99; stroke:none;" d="M259 84L263 88L259 84z"/>
<path style="fill:#7b7359; stroke:none;" d="M639 84L641 88L642 88L639 84z"/>
<path style="fill:#d4ab99; stroke:none;" d="M689 84L690 85L689 84z"/>
<path style="fill:#7b7359; stroke:none;" d="M751.333 84.6667L751.667 85.3333L751.333 84.6667z"/>
<path style="fill:#d4ab99; stroke:none;" d="M639 85L640 86L639 85z"/>
<path style="fill:#7b7359; stroke:none;" d="M688 85L689 86L688 85z"/>
<path style="fill:#d4ab99; stroke:none;" d="M640 86L641 87L640 86z"/>
<path style="fill:#7b7359; stroke:none;" d="M687 86L685 89L687 86z"/>
<path style="fill:#d4ab99; stroke:none;" d="M750.333 86.6667L750.667 87.3333L750.333 86.6667M687 87L688 88L687 87z"/>
<path style="fill:#7b7359; stroke:none;" d="M642 88L643 89L642 88z"/>
<path style="fill:#d4ab99; stroke:none;" d="M686 88L687 89L686 88z"/>
<path style="fill:#7b7359; stroke:none;" d="M750.333 88.6667L750.667 89.3333L750.333 88.6667z"/>
<path style="fill:#d4ab99; stroke:none;" d="M264 89L271 96L264 89z"/>
<path style="fill:#7b7359; stroke:none;" d="M643 89L644 90L643 89z"/>
<path style="fill:#d4ab99; stroke:none;" d="M685 89L686 90L685 89M644 90L645 91L644 90z"/>
<path style="fill:#7b7359; stroke:none;" d="M683 90L682 92L683 90z"/>
<path style="fill:#d4ab99; stroke:none;" d="M684 90L685 91L684 90M645 91L646 92L645 91M683 91L684 92L683 91M749 91L750 92L749 91M145 92L145 93L148 93L145 92z"/>
<path style="fill:#7b7359; stroke:none;" d="M647 92L648 93L647 92M680 92L681 93L680 92z"/>
<path style="fill:#d4ab99; stroke:none;" d="M681 92L682 93L681 92z"/>
<path style="fill:#7b7359; stroke:none;" d="M749 92L750 93L749 92z"/>
<path style="fill:#d4ab99; stroke:none;" d="M144 93L145 94L144 93M148 93L148 95L150 95L148 93M648 93L649 94L648 93z"/>
<path style="fill:#7b7359; stroke:none;" d="M649 93L650 94L649 93M676 94L676 95L680 94L676 94z"/>
<path style="fill:#d4ab99; stroke:none;" d="M143 94L144 95L143 94M650 94L651 95L650 94z"/>
<path style="fill:#7b7359; stroke:none;" d="M651.667 94.3333L652.333 94.6667L651.667 94.3333z"/>
<path style="fill:#d4ab99; stroke:none;" d="M678 94L679 95L678 94M748 94L749 95L748 94M142 95L143 96L142 95M150 95L150 97L152 97L150 95M653 95L654 96L653 95z"/>
<path style="fill:#7b7359; stroke:none;" d="M654.667 95.3333L655.333 95.6667L654.667 95.3333M673 95L674 96L673 95z"/>
<path style="fill:#d4ab99; stroke:none;" d="M674.667 95.3333L675.333 95.6667L674.667 95.3333z"/>
<path style="fill:#7b7359; stroke:none;" d="M748 95L749 96L748 95z"/>
<path style="fill:#d4ab99; stroke:none;" d="M141 96L142 97L141 96M657 96L657 97L660 97L657 96z"/>
<path style="fill:#7b7359; stroke:none;" d="M660 96L660 97L669 97L660 96z"/>
<path style="fill:#d4ab99; stroke:none;" d="M669 96L669 97L672 97L669 96M747.333 96.6667L747.667 97.3333L747.333 96.6667M140 97L141 98L140 97M152 97L153 98L152 97M272 97L276 101L272 97M139 98L140 99L139 98M153 98L153 100L155 100L153 98z"/>
<path style="fill:#7b7359; stroke:none;" d="M747 98L748 99L747 98z"/>
<path style="fill:#d4ab99; stroke:none;" d="M138 99L139 100L138 99M746 99L747 100L746 99M137 100L138 101L137 100M155 100L160 105L155 100z"/>
<path style="fill:#7b7359; stroke:none;" d="M746 100L747 101L746 100z"/>
<path style="fill:#d4ab99; stroke:none;" d="M136 101L137 102L136 101M276 101L277 102L276 101M745 101L746 102L745 101M135 102L136 103L135 102M277 102L278 103L277 102z"/>
<path style="fill:#7b7359; stroke:none;" d="M745 102L746 103L745 102z"/>
<path style="fill:#d4ab99; stroke:none;" d="M134 103L135 104L134 103M278 103L279 104L278 103M744 103L745 104L744 103M133 104L134 105L133 104M279 104L280 105L279 104M132 105L133 106L132 105M160 105L163 108L160 105M280 105L287 112L280 105z"/>
<path style="fill:#7b7359; stroke:none;" d="M743 105L744 106L743 105z"/>
<path style="fill:#d4ab99; stroke:none;" d="M131 106L132 107L131 106M742 106L743 107L742 106M130 107L131 108L130 107M741 107L742 108L741 107M129 108L130 109L129 108M163 108L164 109L163 108z"/>
<path style="fill:#7b7359; stroke:none;" d="M741 108L742 109L741 108z"/>
<path style="fill:#d4ab99; stroke:none;" d="M128 109L129 110L128 109M164 109L165 110L164 109z"/>
<path style="fill:#7b7359; stroke:none;" d="M740 109L741 110L740 109z"/>
<path style="fill:#d4ab99; stroke:none;" d="M127 110L128 111L127 110M165 110L168 113L165 110z"/>
<path style="fill:#7b7359; stroke:none;" d="M739 110L740 111L739 110z"/>
<path style="fill:#d4ab99; stroke:none;" d="M126 111L127 112L126 111z"/>
<path style="fill:#7b7359; stroke:none;" d="M738 111L739 112L738 111z"/>
<path style="fill:#d4ab99; stroke:none;" d="M125 112L126 113L125 112M736 112L735 114L736 112z"/>
<path style="fill:#7b7359; stroke:none;" d="M737 112L738 113L737 112z"/>
<path style="fill:#d4ab99; stroke:none;" d="M124 113L125 114L124 113M168 113L168 115L170 115L168 113M288 113L295 120L288 113z"/>
<path style="fill:#7b7359; stroke:none;" d="M736 113L737 114L736 113z"/>
<path style="fill:#d4ab99; stroke:none;" d="M123 114L124 115L123 114M211 114L211 115L215 115L211 114z"/>
<path style="fill:#7b7359; stroke:none;" d="M734 114L735 115L734 114z"/>
<path style="fill:#d4ab99; stroke:none;" d="M122 115L123 116L122 115M170 115L171 116L170 115M216.667 115.333L217.333 115.667L216.667 115.333M732 115L733 116L732 115z"/>
<path style="fill:#7b7359; stroke:none;" d="M733 115L734 116L733 115z"/>
<path style="fill:#d4ab99; stroke:none;" d="M121 116L122 117L121 116M171 116L172 117L171 116M218.667 116.333L219.333 116.667L218.667 116.333M730 116L731 117L730 116z"/>
<path style="fill:#7b7359; stroke:none;" d="M731 116L732 117L731 116z"/>
<path style="fill:#d4ab99; stroke:none;" d="M120 117L121 118L120 117M172 117L173 118L172 117M220.667 117.333L221.333 117.667L220.667 117.333M728 117L729 118L728 117z"/>
<path style="fill:#7b7359; stroke:none;" d="M729 117L730 118L729 117z"/>
<path style="fill:#d4ab99; stroke:none;" d="M119 118L120 119L119 118M173 118L176 121L173 118M222 118L224 120L222 118z"/>
<path style="fill:#7b7359; stroke:none;" d="M223 118L224 119L223 118z"/>
<path style="fill:#d4ab99; stroke:none;" d="M726 118L727 119L726 118z"/>
<path style="fill:#7b7359; stroke:none;" d="M727 118L728 119L727 118M784 118L785 119L784 118z"/>
<path style="fill:#d4ab99; stroke:none;" d="M785.667 118.333L786.333 118.667L785.667 118.333M788 118L788 119L828 119C817.488 114.589 799.434 118 788 118M829.667 118.333L830.333 118.667L829.667 118.333M118 119L119 120L118 119M723 119L724 120L723 119z"/>
<path style="fill:#7b7359; stroke:none;" d="M724.667 119.333L725.333 119.667L724.667 119.333z"/>
<path style="fill:#d4ab99; stroke:none;" d="M831 119L831 151L832 151L831 119M117 120L118 121L117 120M224 120L225 121L224 120M295 120L296 121L295 120M718 120L718 121L721 121L718 120z"/>
<path style="fill:#7b7359; stroke:none;" d="M721 120L722 121L721 120z"/>
<path style="fill:#d4ab99; stroke:none;" d="M116 121L117 122L116 121M176 121L179 124L176 121M225 121L227 123L227 121L225 121M296 121L297 122L296 121M714.667 121.333L715.333 121.667L714.667 121.333z"/>
<path style="fill:#7b7359; stroke:none;" d="M716.667 121.333L717.333 121.667L716.667 121.333z"/>
<path style="fill:#d4ab99; stroke:none;" d="M115 122L116 123L115 122M297 122L298 123L297 122M502 122L502 123L507 123L502 122z"/>
<path style="fill:#7b7359; stroke:none;" d="M507 122L507 123L528 123L507 122z"/>
<path style="fill:#d4ab99; stroke:none;" d="M528 122L528 123L532 123L528 122M626 122L627 123L626 122z"/>
<path style="fill:#7b7359; stroke:none;" d="M626 126L627 126L627 123L692 123C678.879 117.494 655.3 122 641 122C635.878 122 627.944 120.144 626 126z"/>
<path style="fill:#d4ab99; stroke:none;" d="M692.333 122.667L692.667 123.333L692.333 122.667M710 122L710 147L711 147L710 122z"/>
<path style="fill:#7b7359; stroke:none;" d="M711 122L712 123L711 122z"/>
<path style="fill:#d4ab99; stroke:none;" d="M114 123L115 124L114 123M227 123L228 124L227 123M298 123L299 124L298 123M496.667 123.333L497.333 123.667L496.667 123.333z"/>
<path style="fill:#7b7359; stroke:none;" d="M498 123L498 124L501 124L498 123z"/>
<path style="fill:#413003; stroke:none;" d="M471 231C460.349 244.927 429.059 264.102 447.34 284.907C449.759 287.659 452.741 289.449 456 291C450.349 296.905 443.863 303.208 440.951 311C432.444 333.768 448.195 351.432 469 357.795C502.557 368.057 552.824 367.846 583 348.301C604.829 334.163 615.985 294.614 593.985 275.21C581.246 263.975 560.264 261.941 544 261.035C525.454 260.003 505.514 255.965 487 258C488.818 253.034 493.005 243.468 498.104 241.198C501.56 239.658 506.403 241.663 510 241.91C518.378 242.487 527.644 242.665 536 241.829C567.794 238.65 591.396 215.501 589.961 183C589.455 171.544 583.211 164.014 579 154L608 152L608 126C588.492 126 568.452 127.336 549 125.91C522.94 123.999 496.237 118.457 472 132.428C438.805 151.563 430.414 213.986 471 231z"/>
<path style="fill:#7b7359; stroke:none;" d="M534 123L534 124L537 124L534 123z"/>
<path style="fill:#d4ab99; stroke:none;" d="M537.667 123.333L538.333 123.667L537.667 123.333z"/>
<path style="fill:#413003; stroke:none;" d="M627 123C625.958 128.595 621.519 142.432 625.028 147.351C630.027 154.36 642.797 150.22 644.772 161.001C646.499 170.429 645 181.417 645 191C645 210.666 645.103 230.335 644.999 250C644.909 267.165 630.857 255.814 624.028 264.6C620.534 269.094 623 282.436 623 288L714 288C714 282.876 716.575 267.485 712.397 264.013C706.904 259.45 694.697 265.065 692.318 255.981C689.08 243.619 692 226.792 692 214L692 123L627 123z"/>
<path style="fill:#d4ab99; stroke:none;" d="M113 124L114 125L113 124M179 124L180 125L179 124M228 124L229 125L228 124M299 124L303 128L299 124M491.667 124.333L492.333 124.667L491.667 124.333z"/>
<path style="fill:#7b7359; stroke:none;" d="M493.667 124.333L494.333 124.667L493.667 124.333M541 124L542 125L541 124z"/>
<path style="fill:#d4ab99; stroke:none;" d="M542.667 124.333L543.333 124.667L542.667 124.333z"/>
<path style="fill:#7b7359; stroke:none;" d="M692 124L693 125L692 124z"/>
<path style="fill:#d4ab99; stroke:none;" d="M112 125L113 126L112 125M180 125L181 126L180 125M229.333 125.667L229.667 126.333L229.333 125.667M488 125L489 126L488 125z"/>
<path style="fill:#7b7359; stroke:none;" d="M489.667 125.333L490.333 125.667L489.667 125.333M545 125L545 126L608 126L588 125L545 125z"/>
<path style="fill:#d4ab99; stroke:none;" d="M692 125L693 126L692 125M111 126L112 127L111 126M181 126L181 128L183 128L181 126M484 126L485 127L484 126z"/>
<path style="fill:#7b7359; stroke:none;" d="M485.667 126.333L486.333 126.667L485.667 126.333M692 126L692 259L693 259L693 166C693 154.58 696.408 136.504 692 126z"/>
<path style="fill:#d4ab99; stroke:none;" d="M110 127L111 128L110 127M230.333 127.667L230.667 128.333L230.333 127.667M481 127L482 128L481 127z"/>
<path style="fill:#7b7359; stroke:none;" d="M482.667 127.333L483.333 127.667L482.667 127.333z"/>
<path style="fill:#d4ab99; stroke:none;" d="M625 127L625 130L626 130L625 127M109 128L110 129L109 128M183 128L183 133L184 133L183 128M478 128L479 129L478 128z"/>
<path style="fill:#7b7359; stroke:none;" d="M479 128L480 129L479 128z"/>
<path style="fill:#d4ab99; stroke:none;" d="M108 129L109 130L108 129M231.333 129.667L231.667 130.333L231.333 129.667M304 129L311 136L304 129M476 129L477 130L476 129z"/>
<path style="fill:#7b7359; stroke:none;" d="M477 129L478 130L477 129z"/>
<path style="fill:#d4ab99; stroke:none;" d="M107 130L108 131L107 130M474 130L475 131L474 130z"/>
<path style="fill:#7b7359; stroke:none;" d="M475 130L476 131L475 130M625 130L625 133L626 133L625 130z"/>
<path style="fill:#d4ab99; stroke:none;" d="M106 131L107 132L106 131M472 131L473 132L472 131z"/>
<path style="fill:#7b7359; stroke:none;" d="M473 131L474 132L473 131z"/>
<path style="fill:#d4ab99; stroke:none;" d="M105 132L106 133L105 132M232 132L232 135L233 135L232 132M470 132L469 134L470 132z"/>
<path style="fill:#7b7359; stroke:none;" d="M471 132L472 133L471 132z"/>
<path style="fill:#d4ab99; stroke:none;" d="M104 133L105 134L104 133M182 133L182 146L183 146L182 133z"/>
<path style="fill:#7b7359; stroke:none;" d="M470 133L471 134L470 133z"/>
<path style="fill:#d4ab99; stroke:none;" d="M103 134L104 135L103 134M467 134L468 135L467 134z"/>
<path style="fill:#7b7359; stroke:none;" d="M468 134L469 135L468 134z"/>
<path style="fill:#d4ab99; stroke:none;" d="M624 134L624 137L625 137L624 134M102 135L103 136L102 135M466 135L467 136L466 135M101 136L102 137L101 136M233 136L233 143L234 143L233 136M311 136L312 137L311 136M464 136L462 139L464 136z"/>
<path style="fill:#7b7359; stroke:none;" d="M465 136L466 137L465 136z"/>
<path style="fill:#d4ab99; stroke:none;" d="M100 137L101 138L100 137M312 137L316 141L312 137z"/>
<path style="fill:#7b7359; stroke:none;" d="M464 137L465 138L464 137M624 137L624 140L625 140L624 137z"/>
<path style="fill:#d4ab99; stroke:none;" d="M99 138L100 139L99 138z"/>
<path style="fill:#7b7359; stroke:none;" d="M463 138L464 139L463 138z"/>
<path style="fill:#d4ab99; stroke:none;" d="M98 139L99 140L98 139M461 139L462 140L461 139M97 140L98 141L97 140z"/>
<path style="fill:#7b7359; stroke:none;" d="M460 140L461 141L460 140z"/>
<path style="fill:#d4ab99; stroke:none;" d="M96 141L97 142L96 141M316 141L317 142L316 141z"/>
<path style="fill:#7b7359; stroke:none;" d="M459 141L460 142L459 141z"/>
<path style="fill:#d4ab99; stroke:none;" d="M95 142L96 143L95 142M317 142L318 143L317 142z"/>
<path style="fill:#7b7359; stroke:none;" d="M458 142L459 143L458 142z"/>
<path style="fill:#d4ab99; stroke:none;" d="M623 142L623 145L624 145L623 142M94 143L95 144L94 143M318 143L319 144L318 143M457 143L458 144L457 143M93 144L94 145L93 144M232 144L232 149L233 149L232 144M456 144L454 147L456 144M92 145L93 146L92 145M320 145L327 152L320 145z"/>
<path style="fill:#7b7359; stroke:none;" d="M456 145L457 146L456 145M623 145L626 149L626 148L623 145z"/>
<path style="fill:#d4ab99; stroke:none;" d="M91 146L92 147L91 146M183 146L183 149L184 149L183 146z"/>
<path style="fill:#7b7359; stroke:none;" d="M455 146L456 147L455 146z"/>
<path style="fill:#d4ab99; stroke:none;" d="M90 147L91 148L90 147z"/>
<path style="fill:#7b7359; stroke:none;" d="M454 147L455 148L454 147z"/>
<path style="fill:#d4ab99; stroke:none;" d="M89 148L90 149L89 148M453 148L452 150L453 148M623 148L624 149L623 148M88 149L89 150L88 149M184.333 149.667L184.667 150.333L184.333 149.667M233 149L234 150L233 149z"/>
<path style="fill:#7b7359; stroke:none;" d="M453 149L454 150L453 149z"/>
<path style="fill:#d4ab99; stroke:none;" d="M626 149L627 150L626 149z"/>
<path style="fill:#7b7359; stroke:none;" d="M627 149L628 150L627 149z"/>
<path style="fill:#d4ab99; stroke:none;" d="M710 149L711 150L710 149M86 150L86 152L88 150L86 150M234 150L235 151L234 150z"/>
<path style="fill:#7b7359; stroke:none;" d="M452 150L453 151L452 150z"/>
<path style="fill:#d4ab99; stroke:none;" d="M629 150L630 151L629 150z"/>
<path style="fill:#7b7359; stroke:none;" d="M630 150L631 151L630 150M711 150L711 151L736 152C730.244 147.639 718.051 150 711 150M784 150L784 151L831 151C818.823 145.89 797.265 150 784 150z"/>
<path style="fill:#d4ab99; stroke:none;" d="M185.333 151.667L185.667 152.333L185.333 151.667M235 151L236 152L235 151M451 151L452 152L451 151M632 151L633 152L632 151z"/>
<path style="fill:#7b7359; stroke:none;" d="M633 151L634 152L633 151z"/>
<path style="fill:#d4ab99; stroke:none;" d="M734 151L735 152L734 151M85 152L86 153L85 152M236 152L237 153L236 152z"/>
<path style="fill:#7b7359; stroke:none;" d="M451 152L452 153L451 152M602 152L602 153L608 153L602 152z"/>
<path style="fill:#d4ab99; stroke:none;" d="M635 152L636 153L635 152z"/>
<path style="fill:#7b7359; stroke:none;" d="M636 152L637 153L636 152z"/>
<path style="fill:#d4ab99; stroke:none;" d="M735 152L735 243L736 243L736 180L735 152z"/>
<path style="fill:#7b7359; stroke:none;" d="M783 152L783 229L784 229L784 176L783 152z"/>
<path style="fill:#d4ab99; stroke:none;" d="M84 153L85 154L84 153M186 153L187 154L186 153M237 153L239 155L239 153L237 153M328 153L334 159L328 153M450 153L451 154L450 153z"/>
<path style="fill:#7b7359; stroke:none;" d="M515 153L515 154L523 154L515 153M589 153L589 154L594 154L589 153z"/>
<path style="fill:#d4ab99; stroke:none;" d="M594 153L594 154L598 154L594 153M637 153L638 154L637 153z"/>
<path style="fill:#7b7359; stroke:none;" d="M638.667 153.333L639.333 153.667L638.667 153.333z"/>
<path style="fill:#d4ab99; stroke:none;" d="M83 154L84 155L83 154M187 154L189 157L187 154z"/>
<path style="fill:#7b7359; stroke:none;" d="M450 154L451 155L450 154M509.667 154.333L510.333 154.667L509.667 154.333z"/>
<path style="fill:#d4ab99; stroke:none;" d="M511 154L512 155L511 154z"/>
<path style="fill:#f6f6f6; stroke:none;" d="M512 154.465C491.703 158.124 480.792 184.715 495.329 200.906C502.623 209.029 515.827 210.3 526 208.381C547.407 204.343 555.8 177 540.381 161.329C533.498 154.332 521.309 152.786 512 154.465z"/>
<path style="fill:#d4ab99; stroke:none;" d="M525 154L525 155L528 155L525 154z"/>
<path style="fill:#7b7359; stroke:none;" d="M528.667 154.333L529.333 154.667L528.667 154.333M579 154L580 155L579 154z"/>
<path style="fill:#d4ab99; stroke:none;" d="M580 154L580 155L585 155L580 154M640 154L641 155L640 154z"/>
<path style="fill:#7b7359; stroke:none;" d="M641 154L642 155L641 154z"/>
<path style="fill:#d4ab99; stroke:none;" d="M82 155L83 156L82 155M239 155L240 156L239 155M449 155L450 156L449 155z"/>
<path style="fill:#7b7359; stroke:none;" d="M505.667 155.333L506.333 155.667L505.667 155.333z"/>
<path style="fill:#d4ab99; stroke:none;" d="M507 155L508 156L507 155M530 155L531 156L530 155z"/>
<path style="fill:#7b7359; stroke:none;" d="M531.667 155.333L532.333 155.667L531.667 155.333z"/>
<path style="fill:#d4ab99; stroke:none;" d="M579 155L581 157L579 155M642 155L643 156L642 155M81 156L82 157L81 156M240 156L241 157L240 156z"/>
<path style="fill:#7b7359; stroke:none;" d="M449 156L450 157L449 156M503 156L504 157L503 156z"/>
<path style="fill:#d4ab99; stroke:none;" d="M504 156L505 157L504 156M533 156L534 157L533 156z"/>
<path style="fill:#7b7359; stroke:none;" d="M534 156L535 157L534 156M579 156L580 157L579 156M643 156L644 157L643 156z"/>
<path style="fill:#d4ab99; stroke:none;" d="M80 157L81 158L80 157M189 157L190 158L189 157M241 157L242 158L241 157M448 157L449 158L448 157z"/>
<path style="fill:#7b7359; stroke:none;" d="M501 157L502 158L501 157z"/>
<path style="fill:#d4ab99; stroke:none;" d="M502 157L503 158L502 157M535 157L536 158L535 157z"/>
<path style="fill:#7b7359; stroke:none;" d="M536 157L537 158L536 157M580 157L581 158L580 157z"/>
<path style="fill:#d4ab99; stroke:none;" d="M79 158L80 159L79 158M190 158L191 159L190 158M242 158L243 159L242 158z"/>
<path style="fill:#7b7359; stroke:none;" d="M448 158L449 159L448 158z"/>
<path style="fill:#d4ab99; stroke:none;" d="M500 158L501 159L500 158M537 158L539 160L537 158z"/>
<path style="fill:#7b7359; stroke:none;" d="M538 158L539 159L538 158z"/>
<path style="fill:#d4ab99; stroke:none;" d="M581 158L582 159L581 158z"/>
<path style="fill:#7b7359; stroke:none;" d="M644 158L644 258L645 258L645 189L644 158z"/>
<path style="fill:#d4ab99; stroke:none;" d="M78 159L79 160L78 159M191 159L192 160L191 159M243 159L244 160L243 159M334 159L335 160L334 159z"/>
<path style="fill:#7b7359; stroke:none;" d="M498 159L499 160L498 159z"/>
<path style="fill:#d4ab99; stroke:none;" d="M499 159L500 160L499 159z"/>
<path style="fill:#7b7359; stroke:none;" d="M539 159L540 160L539 159z"/>
<path style="fill:#d4ab99; stroke:none;" d="M582 159L583 160L582 159M77 160L78 161L77 160M193 160L196 162L193 160M244 160L245 161L244 160z"/>
<path style="fill:#7b7359; stroke:none;" d="M447.333 160.667L447.667 161.333L447.333 160.667M497 160L498 161L497 160M540 160L544 164L540 160M582 160L583 161L582 160z"/>
<path style="fill:#d4ab99; stroke:none;" d="M76 161L77 162L76 161M245 161L246 162L245 161M336 161L337 162L336 161M496 161L497 162L496 161M540 161L541 162L540 161z"/>
<path style="fill:#7b7359; stroke:none;" d="M583 161L584 162L583 161z"/>
<path style="fill:#d4ab99; stroke:none;" d="M75 162L76 163L75 162M196 162L198 164L198 162L196 162M246 162L247 163L246 162M337 162L338 163L337 162M446.333 162.667L446.667 163.333L446.333 162.667z"/>
<path style="fill:#7b7359; stroke:none;" d="M495 162L496 163L495 162z"/>
<path style="fill:#d4ab99; stroke:none;" d="M541 162L542 163L541 162M584 162L585 163L584 162M74 163L75 164L74 163M247 163L248 164L247 163M338 163L339 164L338 163z"/>
<path style="fill:#7b7359; stroke:none;" d="M494 163L493 165L494 163z"/>
<path style="fill:#d4ab99; stroke:none;" d="M542 163L543 164L542 163z"/>
<path style="fill:#7b7359; stroke:none;" d="M584 163L585 164L584 163z"/>
<path style="fill:#d4ab99; stroke:none;" d="M73 164L74 165L73 164M248 164L249 165L248 164M339 164L343 168L339 164z"/>
<path style="fill:#7b7359; stroke:none;" d="M446 164L447 165L446 164z"/>
<path style="fill:#d4ab99; stroke:none;" d="M494 164L495 165L494 164M543 164L544 165L543 164M585 164L586 165L585 164M72 165L73 166L72 165M219 165L224 170L219 165M249 165L250 166L249 165M493 165L494 166L493 165z"/>
<path style="fill:#7b7359; stroke:none;" d="M544 165L545 168L546 168L544 165M585 165L586 166L585 165z"/>
<path style="fill:#d4ab99; stroke:none;" d="M70 166L70 168L72 166L70 166M250 166L251 167L250 166M445 166L446 167L445 166z"/>
<path style="fill:#7b7359; stroke:none;" d="M492 166L493 167L492 166z"/>
<path style="fill:#d4ab99; stroke:none;" d="M544 166L545 167L544 166M586 166L587 167L586 166z"/>
<path style="fill:#7b7359; stroke:none;" d="M219.667 167.333L220.333 167.667L219.667 167.333z"/>
<path style="fill:#d4ab99; stroke:none;" d="M251 167L252 168L251 167z"/>
<path style="fill:#7b7359; stroke:none;" d="M445.333 167.667L445.667 168.333L445.333 167.667z"/>
<path style="fill:#d4ab99; stroke:none;" d="M492 167L493 168L492 167z"/>
<path style="fill:#7b7359; stroke:none;" d="M586 167L587 168L586 167z"/>
<path style="fill:#d4ab99; stroke:none;" d="M69 168L70 169L69 168M219.333 168.667L219.667 169.333L219.333 168.667M252 168L253 169L252 168z"/>
<path style="fill:#7b7359; stroke:none;" d="M491 168L492 169L491 168z"/>
<path style="fill:#d4ab99; stroke:none;" d="M545 168L546 169L545 168M587.333 168.667L587.667 169.333L587.333 168.667M68 169L69 170L68 169M253 169L254 170L253 169M344 169L351 176L344 169M491 169L492 170L491 169z"/>
<path style="fill:#7b7359; stroke:none;" d="M546 169L547 170L546 169z"/>
<path style="fill:#d4ab99; stroke:none;" d="M67 170L68 171L67 170M224 170L235 181L224 170M254 170L255 171L254 170M444.333 170.667L444.667 171.333L444.333 170.667z"/>
<path style="fill:#7b7359; stroke:none;" d="M490.333 170.667L490.667 171.333L490.333 170.667z"/>
<path style="fill:#d4ab99; stroke:none;" d="M546.333 170.667L546.667 171.333L546.333 170.667z"/>
<path style="fill:#7b7359; stroke:none;" d="M587 170L588 171L587 170z"/>
<path style="fill:#d4ab99; stroke:none;" d="M66 171L67 172L66 171M255 171L256 172L255 171M588.333 171.667L588.667 172.333L588.333 171.667M65 172L66 173L65 172M256 172L258 174L258 172L256 172z"/>
<path style="fill:#7b7359; stroke:none;" d="M444 172L444 175L445 175L444 172z"/>
<path style="fill:#d4ab99; stroke:none;" d="M490 172L491 173L490 172z"/>
<path style="fill:#7b7359; stroke:none;" d="M547.333 172.667L547.667 173.333L547.333 172.667z"/>
<path style="fill:#d4ab99; stroke:none;" d="M64 173L65 174L64 173z"/>
<path style="fill:#7b7359; stroke:none;" d="M588 173L589 174L588 173z"/>
<path style="fill:#d4ab99; stroke:none;" d="M63 174L64 175L63 174M219.333 174.667L219.667 175.333L219.333 174.667M258 174L259 175L258 174z"/>
<path style="fill:#7b7359; stroke:none;" d="M489.333 174.667L489.667 175.333L489.333 174.667z"/>
<path style="fill:#d4ab99; stroke:none;" d="M547.333 174.667L547.667 175.333L547.333 174.667M589.333 174.667L589.667 175.333L589.333 174.667M62 175L63 176L62 175M259 175L260 176L259 175M61 176L62 177L61 176M260 176L261 177L260 176M489.333 176.667L489.667 177.333L489.333 176.667z"/>
<path style="fill:#7b7359; stroke:none;" d="M589 176L589 179L590 179L589 176z"/>
<path style="fill:#d4ab99; stroke:none;" d="M60 177L61 178L60 177M261 177L262 178L261 177M352 177L356 181L352 177M443 177L443 192L444 192L443 177z"/>
<path style="fill:#7b7359; stroke:none;" d="M548 177L548 186L549 186L548 177z"/>
<path style="fill:#d4ab99; stroke:none;" d="M59 178L60 179L59 178M262 178L263 179L262 178M58 179L59 180L58 179M263 179L264 180L263 179z"/>
<path style="fill:#7b7359; stroke:none;" d="M488 179L488 185L489 185L488 179z"/>
<path style="fill:#d4ab99; stroke:none;" d="M57 180L58 181L57 180M264 180L266 182L266 180L264 180M56 181L57 182L56 181M235 181L236 182L235 181M356 181L357 182L356 181M590 181L590 193L591 193L590 181M55 182L56 183L55 182M236 182L237 183L236 182M266 182L267 183L266 182M357 182L358 183L357 182M54 183L55 184L54 183M237 183L240 186L237 183M267 183L268 184L267 183M272 183L272 184L282 184L272 183M358 183L359 184L358 183M53 184L54 185L53 184M268 184L268 185L271 185L268 184M283 184L283 185L286 185L283 184M359 184L360 185L359 184M52 185L53 186L52 185M286 185L286 186L292 188L292 187L286 185M360 185L367 192L360 185M51 186L52 187L51 186M240 186L254 200C251.294 194.198 245.802 188.706 240 186M50 187L51 188L50 187M489 187L489 190L490 190L489 187M49 188L50 189L49 188M292 188L293 189L292 188M48 189L49 190L48 189M293 189L296 192L293 189M547 189L548 190L547 189M47 190L48 191L47 190z"/>
<path style="fill:#7b7359; stroke:none;" d="M489.333 190.667L489.667 191.333L489.333 190.667M547.333 190.667L547.667 191.333L547.333 190.667z"/>
<path style="fill:#d4ab99; stroke:none;" d="M46 191L47 192L46 191M45 192L46 193L45 192M296 192L297 193L296 192M368 192L370 195L368 192M490 192L491 193L490 192M546 192L547 193L546 192M44 193L45 194L44 193M297 193L298 194L297 193z"/>
<path style="fill:#7b7359; stroke:none;" d="M444.333 193.667L444.667 194.333L444.333 193.667M490.333 193.667L490.667 194.333L490.333 193.667M546 193L547 194L546 193z"/>
<path style="fill:#d4ab99; stroke:none;" d="M43.3333 194.667L43.6667 195.333L43.3333 194.667M298.333 194.667L298.667 195.333L298.333 194.667M545 194L546 195L545 194M370 195L372 201L373 201L370 195M444 195L444 198L445 198L444 195M491 195L492 196L491 195z"/>
<path style="fill:#7b7359; stroke:none;" d="M545 195L546 196L545 195z"/>
<path style="fill:#d4ab99; stroke:none;" d="M42.3333 196.667L42.6667 197.333L42.3333 196.667M299 196L300 197L299 196z"/>
<path style="fill:#7b7359; stroke:none;" d="M491 196L492 197L491 196z"/>
<path style="fill:#d4ab99; stroke:none;" d="M544 196L545 197L544 196z"/>
<path style="fill:#7b7359; stroke:none;" d="M589.333 196.667L589.667 197.333L589.333 196.667z"/>
<path style="fill:#d4ab99; stroke:none;" d="M300.333 197.667L300.667 198.333L300.333 197.667M492 197L494 199L492 197z"/>
<path style="fill:#7b7359; stroke:none;" d="M544 197L545 198L544 197z"/>
<path style="fill:#d4ab99; stroke:none;" d="M41.3333 198.667L41.6667 199.333L41.3333 198.667z"/>
<path style="fill:#7b7359; stroke:none;" d="M445.333 198.667L445.667 199.333L445.333 198.667M492 198L493 199L492 198z"/>
<path style="fill:#d4ab99; stroke:none;" d="M543 198L544 199L543 198M589.333 198.667L589.667 199.333L589.333 198.667M301 199L301 203L302 203L301 199z"/>
<path style="fill:#7b7359; stroke:none;" d="M493 199L494 200L493 199z"/>
<path style="fill:#d4ab99; stroke:none;" d="M542 199L540 202L542 199M445 200L446 201L445 200M494 200L496 202L494 200z"/>
<path style="fill:#7b7359; stroke:none;" d="M542 200L543 201L542 200z"/>
<path style="fill:#d4ab99; stroke:none;" d="M40 201L40 206L41 206L40 201M252 201L252 204L253 204L252 201M373 201L373 206L374 206L373 201z"/>
<path style="fill:#7b7359; stroke:none;" d="M494 201L495 202L494 201M541 201L542 202L541 201M588 201L589 202L588 201M446 202L447 203L446 202z"/>
<path style="fill:#d4ab99; stroke:none;" d="M496 202L497 203L496 202M539 202L540 203L539 202M588.333 202.667L588.667 203.333L588.333 202.667M302 203L302 215L303 215L302 203M446 203L447 204L446 203M497 203L498 204L497 203z"/>
<path style="fill:#7b7359; stroke:none;" d="M538 203L539 204L538 203M498 204L500 206L498 204z"/>
<path style="fill:#d4ab99; stroke:none;" d="M499 204L500 205L499 204M536 204L537 205L536 204z"/>
<path style="fill:#7b7359; stroke:none;" d="M537 204L538 205L537 204M587.333 204.667L587.667 205.333L587.333 204.667M447 205L448 206L447 205z"/>
<path style="fill:#d4ab99; stroke:none;" d="M500 205L501 206L500 205M534.667 205.333L535.333 205.667L534.667 205.333M251 206L251 211L252 211L251 206M447 206L448 207L447 206z"/>
<path style="fill:#7b7359; stroke:none;" d="M501.667 206.333L502.333 206.667L501.667 206.333z"/>
<path style="fill:#d4ab99; stroke:none;" d="M503 206L504 207L503 206M532 206L533 207L532 206z"/>
<path style="fill:#7b7359; stroke:none;" d="M533 206L534 207L533 206z"/>
<path style="fill:#d4ab99; stroke:none;" d="M587 206L588 207L587 206z"/>
<path style="fill:#7b7359; stroke:none;" d="M448 207L449 208L448 207M504 207L505 208L504 207z"/>
<path style="fill:#d4ab99; stroke:none;" d="M505 207L506 208L505 207M530 207L531 208L530 207z"/>
<path style="fill:#7b7359; stroke:none;" d="M531 207L532 208L531 207M586 207L587 208L586 207z"/>
<path style="fill:#d4ab99; stroke:none;" d="M448 208L449 209L448 208z"/>
<path style="fill:#7b7359; stroke:none;" d="M507.667 208.333L508.333 208.667L507.667 208.333z"/>
<path style="fill:#d4ab99; stroke:none;" d="M509.667 208.333L510.333 208.667L509.667 208.333M525 208L525 209L528 209L525 208z"/>
<path style="fill:#7b7359; stroke:none;" d="M528 208L529 209L528 208z"/>
<path style="fill:#d4ab99; stroke:none;" d="M586.333 208.667L586.667 209.333L586.333 208.667M40 209L40 212L41 212L40 209M373 209L373 213L374 213L373 209z"/>
<path style="fill:#7b7359; stroke:none;" d="M449 209L450 210L449 209M512 209L512 210L524 210L512 209M585 209L584 213L585 213L585 209z"/>
<path style="fill:#d4ab99; stroke:none;" d="M449 210L450 211L449 210z"/>
<path style="fill:#7b7359; stroke:none;" d="M450 211L451 212L450 211z"/>
<path style="fill:#d4ab99; stroke:none;" d="M585 211L586 212L585 211M450 212L451 213L450 212M41.3333 213.667L41.6667 214.333L41.3333 213.667z"/>
<path style="fill:#7b7359; stroke:none;" d="M451 213L452 214L451 213z"/>
<path style="fill:#d4ab99; stroke:none;" d="M584 213L585 214L584 213M252 214L252 217L253 217L252 214M372.333 214.667L372.667 215.333L372.333 214.667M451 214L452 215L451 214z"/>
<path style="fill:#7b7359; stroke:none;" d="M583 214L584 215L583 214M452 215L453 216L452 215M582 215L583 216L582 215z"/>
<path style="fill:#d4ab99; stroke:none;" d="M42 216L44 219L42 216M301.333 216.667L301.667 217.333L301.333 216.667M371.333 216.667L371.667 217.333L371.333 216.667z"/>
<path style="fill:#7b7359; stroke:none;" d="M453 216L455 218L453 216z"/>
<path style="fill:#d4ab99; stroke:none;" d="M582 216L583 217L582 216M219.333 217.667L219.667 218.333L219.333 217.667M253.333 217.667L253.667 218.333L253.333 217.667M453 217L454 218L453 217z"/>
<path style="fill:#7b7359; stroke:none;" d="M581 217L582 218L581 217z"/>
<path style="fill:#d4ab99; stroke:none;" d="M300 218L298 224L299 224L300 218M370.333 218.667L370.667 219.333L370.333 218.667M454 218L455 219L454 218z"/>
<path style="fill:#7b7359; stroke:none;" d="M580 218L581 219L580 218z"/>
<path style="fill:#d4ab99; stroke:none;" d="M44 219L47 223L44 219z"/>
<path style="fill:#7b7359; stroke:none;" d="M455 219L456 220L455 219z"/>
<path style="fill:#d4ab99; stroke:none;" d="M580 219L581 220L580 219M254 220L255 221L254 220M369 220L370 221L369 220z"/>
<path style="fill:#7b7359; stroke:none;" d="M456 220L461 225L456 220z"/>
<path style="fill:#d4ab99; stroke:none;" d="M579 220L580 221L579 220M255.333 221.667L255.667 222.333L255.333 221.667M368.333 221.667L368.667 222.333L368.333 221.667M456 221L457 222L456 221M578 221L579 222L578 221M457 222L458 223L457 222z"/>
<path style="fill:#7b7359; stroke:none;" d="M577 222L578 223L577 222z"/>
<path style="fill:#d4ab99; stroke:none;" d="M47 223L48 224L47 223M256 223L260 228L256 223M360 230L368 223L360 230M458 223L459 224L458 223z"/>
<path style="fill:#7b7359; stroke:none;" d="M576 223L577 224L576 223z"/>
<path style="fill:#d4ab99; stroke:none;" d="M48 224L52 228L48 224M297 224L298 225L297 224M459 224L460 225L459 224z"/>
<path style="fill:#7b7359; stroke:none;" d="M575 224L576 225L575 224z"/>
<path style="fill:#d4ab99; stroke:none;" d="M296 225L297 226L296 225z"/>
<path style="fill:#7b7359; stroke:none;" d="M461 225L462 226L461 225M574 225L575 226L574 225z"/>
<path style="fill:#d4ab99; stroke:none;" d="M295 226L296 227L295 226M462 226L463 227L462 226z"/>
<path style="fill:#7b7359; stroke:none;" d="M573 226L574 227L573 226z"/>
<path style="fill:#d4ab99; stroke:none;" d="M294 227L295 228L294 227M463 227L464 228L463 227M572 227L573 228L572 227M52 228L53 229L52 228M260 228L261 229L260 228M293 228L294 229L293 228z"/>
<path style="fill:#7b7359; stroke:none;" d="M465 228L466 229L465 228M570 228L569 230L570 228z"/>
<path style="fill:#d4ab99; stroke:none;" d="M571 228L572 229L571 228M53 229L55 231L55 229L53 229M261.667 229.333L262.333 229.667L261.667 229.333M290 231L293 229L290 231M466 229L467 230L466 229z"/>
<path style="fill:#7b7359; stroke:none;" d="M467 229L468 230L467 229z"/>
<path style="fill:#d4ab99; stroke:none;" d="M570 229L571 230L570 229M263 230L264 231L263 230M359 230L360 231L359 230M468 230L469 231L468 230z"/>
<path style="fill:#7b7359; stroke:none;" d="M469 230L470 231L469 230M568 230L569 231L568 230z"/>
<path style="fill:#d4ab99; stroke:none;" d="M55 231L56 232L55 231M264.667 231.333L265.333 231.667L264.667 231.333M288.667 231.333L289.333 231.667L288.667 231.333M358 231L357 233L359 233L358 231z"/>
<path style="fill:#7b7359; stroke:none;" d="M470.333 231.667L470.667 232.333L470.333 231.667M566 231L567 232L566 231z"/>
<path style="fill:#d4ab99; stroke:none;" d="M567 231L568 232L567 231M56 232L58 234L58 232L56 232M267.667 232.333L268.333 232.667L267.667 232.333M282 233L282 234L288 233L282 233z"/>
<path style="fill:#7b7359; stroke:none;" d="M564 232L563 234L564 232z"/>
<path style="fill:#d4ab99; stroke:none;" d="M565 232L566 233L565 232M269 233L269 234L272 234L269 233M356 233L357 234L356 233z"/>
<path style="fill:#7b7359; stroke:none;" d="M469 233L470 234L469 233z"/>
<path style="fill:#d4ab99; stroke:none;" d="M564 233L565 234L564 233M58 234L60 236L60 234L58 234M273 234L273 235L281 235L273 234M355 234L356 235L355 234z"/>
<path style="fill:#7b7359; stroke:none;" d="M468 234L469 235L468 234M561 234L562 235L561 234z"/>
<path style="fill:#d4ab99; stroke:none;" d="M562 234L563 235L562 234M784 234L784 237L785 237L784 234M354 235L355 236L354 235M466 235L467 236L466 235z"/>
<path style="fill:#7b7359; stroke:none;" d="M559 235L560 236L559 235z"/>
<path style="fill:#d4ab99; stroke:none;" d="M560 235L561 236L560 235M60 236L63 238L60 236M353 236L354 237L353 236M465 236L466 237L465 236z"/>
<path style="fill:#7b7359; stroke:none;" d="M556 236L557 237L556 236z"/>
<path style="fill:#d4ab99; stroke:none;" d="M557 236L558 237L557 236M352 237L353 238L352 237M464 237L465 238L464 237z"/>
<path style="fill:#7b7359; stroke:none;" d="M554 237L555 238L554 237z"/>
<path style="fill:#d4ab99; stroke:none;" d="M555 237L556 238L555 237z"/>
<path style="fill:#7b7359; stroke:none;" d="M784 237L784 240L785 240L784 237z"/>
<path style="fill:#d4ab99; stroke:none;" d="M351 238L344 246C347.435 244.393 351.086 242.074 351 238M463 238L464 239L463 238z"/>
<path style="fill:#7b7359; stroke:none;" d="M550.667 238.333L551.333 238.667L550.667 238.333z"/>
<path style="fill:#d4ab99; stroke:none;" d="M552 238L553 239L552 238M462 239L463 240L462 239z"/>
<path style="fill:#7b7359; stroke:none;" d="M547.667 239.333L548.333 239.667L547.667 239.333z"/>
<path style="fill:#d4ab99; stroke:none;" d="M549 239L550 240L549 239M64 240L67 243L64 240M461 240L462 241L461 240M497.667 240.333L498.333 240.667L497.667 240.333z"/>
<path style="fill:#7b7359; stroke:none;" d="M499.667 240.333L500.333 240.667L499.667 240.333M543.667 240.333L544.333 240.667L543.667 240.333z"/>
<path style="fill:#d4ab99; stroke:none;" d="M545.667 240.333L546.333 240.667L545.667 240.333M785.333 240.667L785.667 241.333L785.333 240.667z"/>
<path style="fill:#7b7359; stroke:none;" d="M460 241L461 242L460 241M496 241L497 242L496 241z"/>
<path style="fill:#d4ab99; stroke:none;" d="M501 241L501 242L504 242L501 241z"/>
<path style="fill:#7b7359; stroke:none;" d="M504 241L504 242L507 242L504 241M538.667 241.333L539.333 241.667L538.667 241.333z"/>
<path style="fill:#d4ab99; stroke:none;" d="M540.667 241.333L541.333 241.667L540.667 241.333M459 242L460 243L459 242z"/>
<path style="fill:#7b7359; stroke:none;" d="M495 242L496 243L495 242z"/>
<path style="fill:#d4ab99; stroke:none;" d="M509 242L509 243L512 243L509 242z"/>
<path style="fill:#7b7359; stroke:none;" d="M512 242L512 243L532 243L512 242z"/>
<path style="fill:#d4ab99; stroke:none;" d="M532 242L532 243L535 243L532 242z"/>
<path style="fill:#7b7359; stroke:none;" d="M785 242L786 243L785 242z"/>
<path style="fill:#d4ab99; stroke:none;" d="M67 243L68 244L67 243M458 243L459 244L458 243M495 243L496 244L495 243M786 243L787 244L786 243M68 244L69 245L68 244M457 244L458 245L457 244z"/>
<path style="fill:#7b7359; stroke:none;" d="M494 244L495 245L494 244M786 244L787 245L786 244z"/>
<path style="fill:#d4ab99; stroke:none;" d="M69 245L70 246L69 245z"/>
<path style="fill:#7b7359; stroke:none;" d="M456 245L457 246L456 245z"/>
<path style="fill:#d4ab99; stroke:none;" d="M787 245L789 247L787 245M70 246L71 247L70 246M343 246L339 251L343 246M455 246L456 247L455 246M493 246L494 247L493 246z"/>
<path style="fill:#7b7359; stroke:none;" d="M787 246L788 247L787 246z"/>
<path style="fill:#d4ab99; stroke:none;" d="M71 247L72 248L71 247M454 247L455 248L454 247z"/>
<path style="fill:#7b7359; stroke:none;" d="M492 247L493 248L492 247M788 247L789 248L788 247z"/>
<path style="fill:#d4ab99; stroke:none;" d="M72 248L73 249L72 248M219 248L219 256L220 256L219 248M453 248L454 249L453 248z"/>
<path style="fill:#7b7359; stroke:none;" d="M736 248L736 251L737 251L736 248M789 248L792 251L789 248z"/>
<path style="fill:#d4ab99; stroke:none;" d="M790 248L791 249L790 248M828 248L829 249L828 248z"/>
<path style="fill:#7b7359; stroke:none;" d="M829 248L829 249L832 250L829 248z"/>
<path style="fill:#d4ab99; stroke:none;" d="M73 249L74 250L73 249M452 249L453 250L452 249z"/>
<path style="fill:#7b7359; stroke:none;" d="M491 249L492 250L491 249z"/>
<path style="fill:#d4ab99; stroke:none;" d="M791 249L792 250L791 249M825 249L826 250L825 249z"/>
<path style="fill:#7b7359; stroke:none;" d="M826.667 249.333L827.333 249.667L826.667 249.333z"/>
<path style="fill:#d4ab99; stroke:none;" d="M74 250L76 252L76 250L74 250M451 250L452 251L451 250z"/>
<path style="fill:#7b7359; stroke:none;" d="M490 250L491 251L490 250z"/>
<path style="fill:#d4ab99; stroke:none;" d="M792.667 250.333L793.333 250.667L792.667 250.333M821.667 250.333L822.333 250.667L821.667 250.333z"/>
<path style="fill:#7b7359; stroke:none;" d="M823 250L824 251L823 250z"/>
<path style="fill:#d4ab99; stroke:none;" d="M832.333 250.667L832.667 251.333L832.333 250.667M338 251L339 252L338 251M450 251L451 252L450 251M490 251L491 252L490 251M736.333 251.667L736.667 252.333L736.333 251.667z"/>
<path style="fill:#7b7359; stroke:none;" d="M794 251L795 252L794 251z"/>
<path style="fill:#d4ab99; stroke:none;" d="M795 251L796 252L795 251M817.667 251.333L818.333 251.667L817.667 251.333z"/>
<path style="fill:#7b7359; stroke:none;" d="M819.667 251.333L820.333 251.667L819.667 251.333z"/>
<path style="fill:#d4ab99; stroke:none;" d="M76 252L79 255L76 252M337 252L338 253L337 252M449 252L448 254L449 252z"/>
<path style="fill:#7b7359; stroke:none;" d="M489 252L490 253L489 252M798 252L799 253L798 252z"/>
<path style="fill:#d4ab99; stroke:none;" d="M799 252L799 253L803 253L799 252M808 252L808 253L813 253L808 252z"/>
<path style="fill:#7b7359; stroke:none;" d="M813 252L813 253L816 253L813 252M832 252L833 253L832 252z"/>
<path style="fill:#d4ab99; stroke:none;" d="M198 253L199 254L198 253M336 253L337 254L336 253z"/>
<path style="fill:#7b7359; stroke:none;" d="M449 253L450 254L449 253z"/>
<path style="fill:#d4ab99; stroke:none;" d="M489 253L490 254L489 253M833.333 253.667L833.667 254.333L833.333 253.667M197 254L196 256L198 256L197 254M335 254L334 256L336 256L335 254z"/>
<path style="fill:#7b7359; stroke:none;" d="M448 254L449 255L448 254z"/>
<path style="fill:#d4ab99; stroke:none;" d="M488 254L489 255L488 254z"/>
<path style="fill:#7b7359; stroke:none;" d="M737.333 254.667L737.667 255.333L737.333 254.667z"/>
<path style="fill:#d4ab99; stroke:none;" d="M79 255L80 256L79 255z"/>
<path style="fill:#7b7359; stroke:none;" d="M447 255L448 256L447 255M487 255L488 256L487 255M833 255L834 256L833 255z"/>
<path style="fill:#d4ab99; stroke:none;" d="M81 256L84 260L81 256M194.667 256.333L195.333 256.667L194.667 256.333M220 256L223 258L220 256M333 256L334 257L333 256M446 256L447 257L446 256M487 256L488 257L487 256M737.333 256.667L737.667 257.333L737.333 256.667M834.333 256.667L834.667 257.333L834.333 256.667M192.667 257.333L193.333 257.667L192.667 257.333M332 257L333 258L332 257z"/>
<path style="fill:#7b7359; stroke:none;" d="M446 257L447 258L446 257M487 257L488 258L487 257M489 257L489 258L496 258L489 257z"/>
<path style="fill:#d4ab99; stroke:none;" d="M496 257L496 258L502 258L496 257M191 258L192 259L191 258M223 258L224 259L223 258M331 258L332 259L331 258z"/>
<path style="fill:#7b7359; stroke:none;" d="M445 258L446 259L445 258M507 258L507 259L513 259L507 258z"/>
<path style="fill:#d4ab99; stroke:none;" d="M513 258L513 259L519 259L513 258M643 258L642 260L643 258z"/>
<path style="fill:#7b7359; stroke:none;" d="M834.333 258.667L834.667 259.333L834.333 258.667z"/>
<path style="fill:#d4ab99; stroke:none;" d="M190 259L191 260L190 259M224 259L228 263L224 259M330 259L328 262L330 259z"/>
<path style="fill:#7b7359; stroke:none;" d="M522 259L522 260L528 260L522 259z"/>
<path style="fill:#d4ab99; stroke:none;" d="M528 259L528 260L533 260L528 259z"/>
<path style="fill:#7b7359; stroke:none;" d="M643 259L644 260L643 259z"/>
<path style="fill:#d4ab99; stroke:none;" d="M693 259L694 260L693 259z"/>
<path style="fill:#7b7359; stroke:none;" d="M738.333 259.667L738.667 260.333L738.333 259.667z"/>
<path style="fill:#d4ab99; stroke:none;" d="M84 260L85 261L84 260M189 260L190 261L189 260z"/>
<path style="fill:#7b7359; stroke:none;" d="M444 260L445 261L444 260M537 260L537 261L542 261L537 260z"/>
<path style="fill:#d4ab99; stroke:none;" d="M542 260L542 261L546 261L542 260M639.667 260.333L640.333 260.667L639.667 260.333z"/>
<path style="fill:#7b7359; stroke:none;" d="M641 260L642 261L641 260M694.667 260.333L695.333 260.667L694.667 260.333z"/>
<path style="fill:#d4ab99; stroke:none;" d="M696 260L696 261L699 261L696 260M835 260L836 261L835 260M85 261L86 262L85 261M188 261L189 262L188 261M443 261L444 262L443 261z"/>
<path style="fill:#7b7359; stroke:none;" d="M548 261L548 262L552 262L548 261z"/>
<path style="fill:#d4ab99; stroke:none;" d="M552 261L552 262L555 262L552 261M632 261L632 262L635 262L632 261z"/>
<path style="fill:#7b7359; stroke:none;" d="M635 261L635 262L638 262L635 261M699 261L699 262L702 262L699 261z"/>
<path style="fill:#d4ab99; stroke:none;" d="M702.667 261.333L703.333 261.667L702.667 261.333M738 261L739 262L738 261z"/>
<path style="fill:#7b7359; stroke:none;" d="M835.333 261.667L835.667 262.333L835.333 261.667z"/>
<path style="fill:#d4ab99; stroke:none;" d="M86 262L87 263L86 262M187 262L186 265L187 262M327 262L320 270C323.435 268.393 327.086 266.074 327 262z"/>
<path style="fill:#7b7359; stroke:none;" d="M443.333 262.667L443.667 263.333L443.333 262.667M557 262L557 263L560 263L557 262z"/>
<path style="fill:#d4ab99; stroke:none;" d="M560 262L560 263L563 263L560 262M624 262L624 263L627 263L624 262z"/>
<path style="fill:#7b7359; stroke:none;" d="M627 262L627 263L630 263L627 262M707 262L707 263L710 263L707 262z"/>
<path style="fill:#d4ab99; stroke:none;" d="M710.667 262.333L711.333 262.667L710.667 262.333z"/>
<path style="fill:#7b7359; stroke:none;" d="M739.333 262.667L739.667 263.333L739.333 262.667z"/>
<path style="fill:#d4ab99; stroke:none;" d="M87 263L88 264L87 263M228 263L229 264L228 263M442 263L442 266L443 266L442 263z"/>
<path style="fill:#7b7359; stroke:none;" d="M564.667 263.333L565.333 263.667L564.667 263.333z"/>
<path style="fill:#d4ab99; stroke:none;" d="M566.667 263.333L567.333 263.667L566.667 263.333z"/>
<path style="fill:#7b7359; stroke:none;" d="M623 263L624 264L623 263M713 263L714 264L713 263z"/>
<path style="fill:#d4ab99; stroke:none;" d="M88 264L92 268L88 264M229.333 264.667L229.667 265.333L229.333 264.667z"/>
<path style="fill:#7b7359; stroke:none;" d="M570 264L571 265L570 264z"/>
<path style="fill:#d4ab99; stroke:none;" d="M571.667 264.333L572.333 264.667L571.667 264.333M836 264L837 265L836 264M185.333 265.667L185.667 266.333L185.333 265.667z"/>
<path style="fill:#7b7359; stroke:none;" d="M573.667 265.333L574.333 265.667L573.667 265.333z"/>
<path style="fill:#d4ab99; stroke:none;" d="M575.667 265.333L576.333 265.667L575.667 265.333z"/>
<path style="fill:#7b7359; stroke:none;" d="M740 265L741 266L740 265M836 265L837 266L836 265z"/>
<path style="fill:#d4ab99; stroke:none;" d="M230.333 266.667L230.667 267.333L230.333 266.667z"/>
<path style="fill:#7b7359; stroke:none;" d="M442.333 266.667L442.667 267.333L442.333 266.667M577.667 266.333L578.333 266.667L577.667 266.333z"/>
<path style="fill:#d4ab99; stroke:none;" d="M579 266L580 267L579 266M740 266L741 267L740 266M184.333 267.667L184.667 268.333L184.333 267.667z"/>
<path style="fill:#7b7359; stroke:none;" d="M580 267L581 268L580 267z"/>
<path style="fill:#d4ab99; stroke:none;" d="M581 267L582 268L581 267z"/>
<path style="fill:#7b7359; stroke:none;" d="M741 267L742 268L741 267z"/>
<path style="fill:#d4ab99; stroke:none;" d="M837 267L838 268L837 267M92 268L95 271L92 268M231 268L232 269L231 268z"/>
<path style="fill:#7b7359; stroke:none;" d="M582.667 268.333L583.333 268.667L582.667 268.333z"/>
<path style="fill:#d4ab99; stroke:none;" d="M584 268L585 269L584 268M741 268L742 269L741 268z"/>
<path style="fill:#7b7359; stroke:none;" d="M837 268L838 269L837 268z"/>
<path style="fill:#d4ab99; stroke:none;" d="M183 269L183 272L184 272L183 269z"/>
<path style="fill:#7b7359; stroke:none;" d="M585 269L586 270L585 269z"/>
<path style="fill:#d4ab99; stroke:none;" d="M586 269L587 270L586 269z"/>
<path style="fill:#7b7359; stroke:none;" d="M742 269L743 272L744 272L742 269z"/>
<path style="fill:#d4ab99; stroke:none;" d="M319 270L317 273L319 270z"/>
<path style="fill:#7b7359; stroke:none;" d="M587 270L590 272L590 271L587 270z"/>
<path style="fill:#d4ab99; stroke:none;" d="M588 270L589 271L588 270M742 270L743 271L742 270M838 270L839 271L838 270M95 271L96 272L95 271M232 271L232 274L233 274L232 271z"/>
<path style="fill:#7b7359; stroke:none;" d="M838 271L839 272L838 271z"/>
<path style="fill:#d4ab99; stroke:none;" d="M96 272L97 273L96 272M182 272L182 284L183 284L182 272z"/>
<path style="fill:#7b7359; stroke:none;" d="M590 272L591 273L590 272z"/>
<path style="fill:#d4ab99; stroke:none;" d="M591 272L592 273L591 272z"/>
<path style="fill:#7b7359; stroke:none;" d="M744 272L746 274L744 272z"/>
<path style="fill:#d4ab99; stroke:none;" d="M97 273L100 276L97 273M316 273L317 274L316 273z"/>
<path style="fill:#7b7359; stroke:none;" d="M442 273L442 276L443 276L442 273z"/>
<path style="fill:#d4ab99; stroke:none;" d="M592 273L593 274L592 273M744 273L745 274L744 273M839 273L840 274L839 273M315 274L316 275L315 274z"/>
<path style="fill:#7b7359; stroke:none;" d="M593 274L594 275L593 274z"/>
<path style="fill:#d4ab99; stroke:none;" d="M745 274L746 275L745 274z"/>
<path style="fill:#7b7359; stroke:none;" d="M839.333 274.667L839.667 275.333L839.333 274.667z"/>
<path style="fill:#d4ab99; stroke:none;" d="M233 275L233 282L234 282L233 275M314 275L315 276L314 275z"/>
<path style="fill:#7b7359; stroke:none;" d="M594 275L595 276L594 275z"/>
<path style="fill:#d4ab99; stroke:none;" d="M746 275L747 276L746 275M100 276L103 279L100 276M313 276L314 277L313 276M442.333 276.667L442.667 277.333L442.333 276.667z"/>
<path style="fill:#7b7359; stroke:none;" d="M595 276L596 277L595 276z"/>
<path style="fill:#d4ab99; stroke:none;" d="M747 276L748 277L747 276z"/>
<path style="fill:#7b7359; stroke:none;" d="M837.667 276.333L838.333 276.667L837.667 276.333z"/>
<path style="fill:#d4ab99; stroke:none;" d="M312 277L313 278L312 277z"/>
<path style="fill:#7b7359; stroke:none;" d="M596 277L597 278L596 277z"/>
<path style="fill:#d4ab99; stroke:none;" d="M748 277L749 278L748 277z"/>
<path style="fill:#7b7359; stroke:none;" d="M835 277L836 278L835 277z"/>
<path style="fill:#d4ab99; stroke:none;" d="M836 277L837 278L836 277M311 278L312 279L311 278z"/>
<path style="fill:#7b7359; stroke:none;" d="M443 278L444 279L443 278M597 278L598 279L597 278z"/>
<path style="fill:#d4ab99; stroke:none;" d="M749 278L750 279L749 278z"/>
<path style="fill:#7b7359; stroke:none;" d="M750 278L751 279L750 278M833 278L834 279L833 278z"/>
<path style="fill:#d4ab99; stroke:none;" d="M834 278L835 279L834 278M103 279L104 280L103 279M310 279L307 283L310 279M443 279L444 280L443 279M598 279L599 280L598 279z"/>
<path style="fill:#7b7359; stroke:none;" d="M751 279L752 280L751 279M830.667 279.333L831.333 279.667L830.667 279.333z"/>
<path style="fill:#d4ab99; stroke:none;" d="M832 279L833 280L832 279M104 280L108 284L104 280M599 280L600 281L599 280z"/>
<path style="fill:#7b7359; stroke:none;" d="M752 280L752 281L755 282L752 280M828 280L829 281L828 280z"/>
<path style="fill:#d4ab99; stroke:none;" d="M829 280L830 281L829 280M444 281L445 282L444 281z"/>
<path style="fill:#7b7359; stroke:none;" d="M599 281L600 282L599 281z"/>
<path style="fill:#d4ab99; stroke:none;" d="M753 281L754 282L753 281z"/>
<path style="fill:#7b7359; stroke:none;" d="M825 281L826 282L825 281z"/>
<path style="fill:#d4ab99; stroke:none;" d="M826.667 281.333L827.333 281.667L826.667 281.333z"/>
<path style="fill:#7b7359; stroke:none;" d="M445 282L446 283L445 282z"/>
<path style="fill:#d4ab99; stroke:none;" d="M600 282L601 283L600 282M755 282L756 283L755 282z"/>
<path style="fill:#7b7359; stroke:none;" d="M756 282L757 283L756 282M822.667 282.333L823.333 282.667L822.667 282.333z"/>
<path style="fill:#d4ab99; stroke:none;" d="M824 282L825 283L824 282M232 283L232 286L233 286L232 283M306 283L304 286L306 283M445 283L446 284L445 283z"/>
<path style="fill:#7b7359; stroke:none;" d="M600 283L601 284L600 283z"/>
<path style="fill:#d4ab99; stroke:none;" d="M757 283L758 284L757 283z"/>
<path style="fill:#7b7359; stroke:none;" d="M758 283L759 284L758 283M819 283L820 284L819 283z"/>
<path style="fill:#d4ab99; stroke:none;" d="M820.667 283.333L821.333 283.667L820.667 283.333M108 284L111 287L108 284z"/>
<path style="fill:#7b7359; stroke:none;" d="M446 284L447 285L446 284M601.333 284.667L601.667 285.333L601.333 284.667z"/>
<path style="fill:#d4ab99; stroke:none;" d="M759 284L760 285L759 284z"/>
<path style="fill:#7b7359; stroke:none;" d="M760.667 284.333L761.333 284.667L760.667 284.333M815.667 284.333L816.333 284.667L815.667 284.333z"/>
<path style="fill:#d4ab99; stroke:none;" d="M817 284L818 285L817 284M183 285L183 288L184 288L183 285z"/>
<path style="fill:#7b7359; stroke:none;" d="M447 285L448 286L447 285z"/>
<path style="fill:#d4ab99; stroke:none;" d="M762 285L763 286L762 285z"/>
<path style="fill:#7b7359; stroke:none;" d="M763.667 285.333L764.333 285.667L763.667 285.333M811.667 285.333L812.333 285.667L811.667 285.333z"/>
<path style="fill:#d4ab99; stroke:none;" d="M813 285L814 286L813 285M303 286L299 291L303 286z"/>
<path style="fill:#7b7359; stroke:none;" d="M448 286L449 287L448 286z"/>
<path style="fill:#d4ab99; stroke:none;" d="M602 286L603 287L602 286M766 286L767 287L766 286z"/>
<path style="fill:#7b7359; stroke:none;" d="M767 286L768 287L767 286M806.667 286.333L807.333 286.667L806.667 286.333z"/>
<path style="fill:#d4ab99; stroke:none;" d="M808.667 286.333L809.333 286.667L808.667 286.333M111 287L112 288L111 287M231.333 287.667L231.667 288.333L231.333 287.667z"/>
<path style="fill:#7b7359; stroke:none;" d="M449 287L450 288L449 287M602 287L603 288L602 287z"/>
<path style="fill:#d4ab99; stroke:none;" d="M770.667 287.333L771.333 287.667L770.667 287.333z"/>
<path style="fill:#7b7359; stroke:none;" d="M772 287L772 288L775 288L772 287M800.667 287.333L801.333 287.667L800.667 287.333z"/>
<path style="fill:#d4ab99; stroke:none;" d="M802 287L802 288L805 288L802 287M112 288L113 289L112 288M184.333 288.667L184.667 289.333L184.333 288.667M450 288L451 289L450 288z"/>
<path style="fill:#7b7359; stroke:none;" d="M451 288L452 289L451 288z"/>
<path style="fill:#d4ab99; stroke:none;" d="M603.333 288.667L603.667 289.333L603.333 288.667M623 288L623 289L714 289L686 288L623 288M777 288L777 289L781 289L777 288z"/>
<path style="fill:#7b7359; stroke:none;" d="M781 288L781 289L794 289L781 288z"/>
<path style="fill:#d4ab99; stroke:none;" d="M794 288L794 289L798 289L794 288M113 289L116 292L113 289M230.333 289.667L230.667 290.333L230.333 289.667z"/>
<path style="fill:#7b7359; stroke:none;" d="M452 289L453 290L452 289z"/>
<path style="fill:#d4ab99; stroke:none;" d="M185 290L187 293L185 290z"/>
<path style="fill:#7b7359; stroke:none;" d="M454 290L455 291L454 290M603 290L604 291L603 290z"/>
<path style="fill:#d4ab99; stroke:none;" d="M229 291L228 294L229 291M298 291L299 292L298 291M455 291L456 292L455 291M116 292L117 293L116 292M297 292L298 293L297 292M454 292L455 293L454 292M604 292L605 293L604 292M117 293L118 294L117 293M187 293L189 296L187 293M296 293L297 294L296 293M453 293L454 294L453 293z"/>
<path style="fill:#7b7359; stroke:none;" d="M604 293L604 296L605 296L604 293z"/>
<path style="fill:#d4ab99; stroke:none;" d="M118 294L119 295L118 294M227 294L228 295L227 294M295 294L296 295L295 294M452 294L453 295L452 294M119 295L120 296L119 295M226 295L227 296L226 295M294 295L295 296L294 295M451 295L452 296L451 295M120 296L121 297L120 296M189 296L194 300L189 296M225 296L224 298L226 298L225 296M293 296L294 297L293 296M450 296L446 301L450 296M121 297L122 298L121 297M292 297L293 298L292 297z"/>
<path style="fill:#7b7359; stroke:none;" d="M450 297L451 298L450 297z"/>
<path style="fill:#d4ab99; stroke:none;" d="M605 297L605 300L606 300L605 297M122 298L124 300L124 298L122 298M221 300L224 298L221 300M291 298L292 299L291 298z"/>
<path style="fill:#7b7359; stroke:none;" d="M449 298L450 299L449 298z"/>
<path style="fill:#d4ab99; stroke:none;" d="M290 299L288 302L290 299z"/>
<path style="fill:#7b7359; stroke:none;" d="M448 299L449 300L448 299z"/>
<path style="fill:#d4ab99; stroke:none;" d="M124 300L125 301L124 300M194.667 300.333L195.333 300.667L194.667 300.333M220 300L221 301L220 300z"/>
<path style="fill:#7b7359; stroke:none;" d="M447 300L448 301L447 300M483 300L484 301L483 300z"/>
<path style="fill:#d4ab99; stroke:none;" d="M484 300L482 303L484 300z"/>
<path style="fill:#f6f6f6; stroke:none;" d="M485.093 301.313C471.71 306.875 475.872 324.969 487 329.525C503.275 336.187 534.431 336.24 549.996 327.583C558.425 322.896 561.505 310.444 550.996 306.144C537.655 300.686 519.221 303.184 505 301.83C499.402 301.298 490.443 299.09 485.093 301.313z"/>
<path style="fill:#d4ab99; stroke:none;" d="M486 300L486 301L492 301L486 300z"/>
<path style="fill:#7b7359; stroke:none;" d="M492 300L492 301L498 301L492 300M605 300L605 312L606 312L605 300z"/>
<path style="fill:#d4ab99; stroke:none;" d="M125 301L127 303L127 301L125 301M196.667 301.333L197.333 301.667L196.667 301.333M217 301L217 302L220 302L217 301z"/>
<path style="fill:#7b7359; stroke:none;" d="M446 301L447 302L446 301z"/>
<path style="fill:#d4ab99; stroke:none;" d="M502 301L502 302L507 302L502 301z"/>
<path style="fill:#7b7359; stroke:none;" d="M507 301L507 302L512 302L507 301z"/>
<path style="fill:#d4ab99; stroke:none;" d="M198 302L198 303L201 303L198 302M214 302L214 303L217 303L214 302M287 302L280 310C283.435 308.393 287.086 306.074 287 302M445 302L446 303L445 302M516 302L516 303L520 303L516 302z"/>
<path style="fill:#7b7359; stroke:none;" d="M520 302L520 303L527 303L520 302z"/>
<path style="fill:#d4ab99; stroke:none;" d="M127 303L128 304L127 303M201 303L201 304L207 304L201 303M209 303L209 304L214 304L209 303M444 303L445 304L444 303z"/>
<path style="fill:#7b7359; stroke:none;" d="M481 303L480 305L481 303z"/>
<path style="fill:#d4ab99; stroke:none;" d="M529 303L529 304L536 304L529 303z"/>
<path style="fill:#7b7359; stroke:none;" d="M536 303L536 304L540 304L536 303z"/>
<path style="fill:#d4ab99; stroke:none;" d="M128 304L132 308L128 304M481 304L482 305L481 304M544.667 304.333L545.333 304.667L544.667 304.333z"/>
<path style="fill:#7b7359; stroke:none;" d="M546.667 304.333L547.333 304.667L546.667 304.333M443 305L444 306L443 305z"/>
<path style="fill:#d4ab99; stroke:none;" d="M480 305L481 306L480 305M549 305L550 306L549 305z"/>
<path style="fill:#7b7359; stroke:none;" d="M550 305L551 306L550 305z"/>
<path style="fill:#d4ab99; stroke:none;" d="M442 306L443 307L442 306z"/>
<path style="fill:#7b7359; stroke:none;" d="M479 306L478 308L479 306z"/>
<path style="fill:#d4ab99; stroke:none;" d="M552 306L553 307L552 306z"/>
<path style="fill:#7b7359; stroke:none;" d="M553 306L554 307L553 306M442 307L443 308L442 307z"/>
<path style="fill:#d4ab99; stroke:none;" d="M479 307L480 308L479 307M554 307L555 308L554 307M132 308L135 311L132 308M441 308L442 309L441 308M478 308L479 309L478 308M555 308L557 310L555 308z"/>
<path style="fill:#7b7359; stroke:none;" d="M556 308L557 309L556 308M441 309L442 310L441 309M477 309L478 310L477 309z"/>
<path style="fill:#d4ab99; stroke:none;" d="M279 310L280 311L279 310M440 310L441 311L440 310M477 310L478 311L477 310z"/>
<path style="fill:#7b7359; stroke:none;" d="M557 310L558 311L557 310z"/>
<path style="fill:#d4ab99; stroke:none;" d="M278 311L277 313L279 313L278 311z"/>
<path style="fill:#7b7359; stroke:none;" d="M440 311L441 312L440 311z"/>
<path style="fill:#d4ab99; stroke:none;" d="M557 311L558 312L557 311M136 312L138 314L138 312L136 312z"/>
<path style="fill:#7b7359; stroke:none;" d="M476 312L477 313L476 312z"/>
<path style="fill:#d4ab99; stroke:none;" d="M605 312L605 315L606 315L605 312M276 313L277 314L276 313M476.333 313.667L476.667 314.333L476.333 313.667z"/>
<path style="fill:#7b7359; stroke:none;" d="M558 313L558 317L559 317L558 313z"/>
<path style="fill:#d4ab99; stroke:none;" d="M138 314L140 316L140 314L138 314M275 314L276 315L275 314M439 314L440 315L439 314M274 315L275 316L274 315z"/>
<path style="fill:#7b7359; stroke:none;" d="M439.333 315.667L439.667 316.333L439.333 315.667z"/>
<path style="fill:#d4ab99; stroke:none;" d="M140 316L143 318L140 316M273 316L274 317L273 316z"/>
<path style="fill:#7b7359; stroke:none;" d="M604.333 316.667L604.667 317.333L604.333 316.667z"/>
<path style="fill:#d4ab99; stroke:none;" d="M272 317L273 318L272 317M271 318L267 323L271 318M438 318L438 321L439 321L438 318M476.333 318.667L476.667 319.333L476.333 318.667M604.333 318.667L604.667 319.333L604.333 318.667M557 319L558 320L557 319M144 320L148 324L144 320z"/>
<path style="fill:#7b7359; stroke:none;" d="M476.333 320.667L476.667 321.333L476.333 320.667M557 320L558 321L557 320M438 321L438 326L439 326L438 321z"/>
<path style="fill:#d4ab99; stroke:none;" d="M477.333 321.667L477.667 322.333L477.333 321.667M556 321L557 322L556 321z"/>
<path style="fill:#7b7359; stroke:none;" d="M603 321L604 322L603 321M556 322L557 323L556 322z"/>
<path style="fill:#d4ab99; stroke:none;" d="M603 322L604 323L603 322M266 323L264 326L266 323M478 323L479 324L478 323M555 323L556 324L555 323M148 324L151 327L148 324z"/>
<path style="fill:#7b7359; stroke:none;" d="M478 324L479 325L478 324z"/>
<path style="fill:#d4ab99; stroke:none;" d="M554 324L555 325L554 324z"/>
<path style="fill:#7b7359; stroke:none;" d="M602 324L603 325L602 324M479 325L480 326L479 325M553 325L554 326L553 325z"/>
<path style="fill:#d4ab99; stroke:none;" d="M602 325L603 326L602 325M263 326L261 329L263 326M438 326L438 330L439 330L438 326z"/>
<path style="fill:#7b7359; stroke:none;" d="M480 326L482 328L480 326z"/>
<path style="fill:#d4ab99; stroke:none;" d="M481 326L482 327L481 326z"/>
<path style="fill:#7b7359; stroke:none;" d="M552 326L553 327L552 326M601.333 326.667L601.667 327.333L601.333 326.667z"/>
<path style="fill:#d4ab99; stroke:none;" d="M482 327L483 328L482 327M550 327L551 328L550 327z"/>
<path style="fill:#7b7359; stroke:none;" d="M551 327L552 328L551 327z"/>
<path style="fill:#d4ab99; stroke:none;" d="M152 328L154 330L154 328L152 328z"/>
<path style="fill:#7b7359; stroke:none;" d="M483 328L484 329L483 328z"/>
<path style="fill:#d4ab99; stroke:none;" d="M484 328L485 329L484 328M548 328L549 329L548 328z"/>
<path style="fill:#7b7359; stroke:none;" d="M549 328L550 329L549 328z"/>
<path style="fill:#d4ab99; stroke:none;" d="M260 329L259 331L261 331L260 329z"/>
<path style="fill:#7b7359; stroke:none;" d="M485 329L486 330L485 329z"/>
<path style="fill:#d4ab99; stroke:none;" d="M486 329L487 330L486 329M545.667 329.333L546.333 329.667L545.667 329.333z"/>
<path style="fill:#7b7359; stroke:none;" d="M547 329L548 330L547 329M600 329L601 330L600 329z"/>
<path style="fill:#d4ab99; stroke:none;" d="M154 330L156 332L156 330L154 330z"/>
<path style="fill:#7b7359; stroke:none;" d="M487.667 330.333L488.333 330.667L487.667 330.333z"/>
<path style="fill:#d4ab99; stroke:none;" d="M489 330L490 331L489 330M542.667 330.333L543.333 330.667L542.667 330.333z"/>
<path style="fill:#7b7359; stroke:none;" d="M544.667 330.333L545.333 330.667L544.667 330.333z"/>
<path style="fill:#d4ab99; stroke:none;" d="M258 331L259 332L258 331z"/>
<path style="fill:#7b7359; stroke:none;" d="M439.333 331.667L439.667 332.333L439.333 331.667M490 331L490 332L493 332L490 331z"/>
<path style="fill:#d4ab99; stroke:none;" d="M493 331L494 332L493 331M538.667 331.333L539.333 331.667L538.667 331.333z"/>
<path style="fill:#7b7359; stroke:none;" d="M540.667 331.333L541.333 331.667L540.667 331.333M599 331L600 332L599 331z"/>
<path style="fill:#d4ab99; stroke:none;" d="M156 332L159 335L156 332M257 332L258 333L257 332z"/>
<path style="fill:#7b7359; stroke:none;" d="M496.667 332.333L497.333 332.667L496.667 332.333z"/>
<path style="fill:#d4ab99; stroke:none;" d="M498 332L498 333L502 333L498 332M531 332L531 333L534 333L531 332z"/>
<path style="fill:#7b7359; stroke:none;" d="M534.667 332.333L535.333 332.667L534.667 332.333M598 332L599 333L598 332z"/>
<path style="fill:#d4ab99; stroke:none;" d="M256 333L257 334L256 333M439 333L440 334L439 333z"/>
<path style="fill:#7b7359; stroke:none;" d="M504 333L504 334L528 334L504 333z"/>
<path style="fill:#d4ab99; stroke:none;" d="M598 333L599 334L598 333M255 334L256 335L255 334z"/>
<path style="fill:#7b7359; stroke:none;" d="M440.333 334.667L440.667 335.333L440.333 334.667M597 334L598 335L597 334z"/>
<path style="fill:#d4ab99; stroke:none;" d="M254 335L255 336L254 335z"/>
<path style="fill:#7b7359; stroke:none;" d="M596 335L595 337L596 335z"/>
<path style="fill:#d4ab99; stroke:none;" d="M161 336L164 340L161 336M253 336L254 337L253 336M440 336L441 337L440 336M596 336L597 337L596 336M252 337L253 338L252 337z"/>
<path style="fill:#7b7359; stroke:none;" d="M441 337L442 338L441 337z"/>
<path style="fill:#d4ab99; stroke:none;" d="M595 337L596 338L595 337M251 338L252 339L251 338M441 338L442 339L441 338z"/>
<path style="fill:#7b7359; stroke:none;" d="M594 338L595 339L594 338z"/>
<path style="fill:#d4ab99; stroke:none;" d="M250 339L248 342L250 339z"/>
<path style="fill:#7b7359; stroke:none;" d="M442 339L443 340L442 339M593 339L594 340L593 339z"/>
<path style="fill:#d4ab99; stroke:none;" d="M164 340L165 341L164 340M442 340L443 341L442 340z"/>
<path style="fill:#7b7359; stroke:none;" d="M592 340L593 341L592 340z"/>
<path style="fill:#d4ab99; stroke:none;" d="M165 341L166 342L165 341z"/>
<path style="fill:#7b7359; stroke:none;" d="M443 341L445 343L443 341M591 341L592 342L591 341z"/>
<path style="fill:#d4ab99; stroke:none;" d="M166 342L167 343L166 342M247 342L245 345L247 342M443 342L444 343L443 342z"/>
<path style="fill:#7b7359; stroke:none;" d="M590 342L591 343L590 342z"/>
<path style="fill:#d4ab99; stroke:none;" d="M167 343L168 344L167 343M444 343L445 344L444 343z"/>
<path style="fill:#7b7359; stroke:none;" d="M589 343L590 344L589 343z"/>
<path style="fill:#d4ab99; stroke:none;" d="M168 344L170 346L170 344L168 344M445 344L446 345L445 344M588 344L589 345L588 344M244 345L243 347L245 347L244 345z"/>
<path style="fill:#7b7359; stroke:none;" d="M446 345L447 346L446 345z"/>
<path style="fill:#d4ab99; stroke:none;" d="M587 345L588 346L587 345M170 346L172 348L172 346L170 346z"/>
<path style="fill:#7b7359; stroke:none;" d="M447 346L448 347L447 346M585 346L586 347L585 346z"/>
<path style="fill:#d4ab99; stroke:none;" d="M586 346L587 347L586 346M242 347L240 350L242 347z"/>
<path style="fill:#7b7359; stroke:none;" d="M448 347L449 348L448 347M584 347L585 348L584 347z"/>
<path style="fill:#d4ab99; stroke:none;" d="M172 348L175 351L172 348M449 348L450 349L449 348z"/>
<path style="fill:#7b7359; stroke:none;" d="M582 348L583 349L582 348z"/>
<path style="fill:#d4ab99; stroke:none;" d="M583 348L584 349L583 348M450 349L452 351L450 349z"/>
<path style="fill:#7b7359; stroke:none;" d="M451 349L452 350L451 349M581 349L582 350L581 349z"/>
<path style="fill:#d4ab99; stroke:none;" d="M239 350L240 351L239 350z"/>
<path style="fill:#7b7359; stroke:none;" d="M452 350L453 351L452 350M579 350L580 351L579 350z"/>
<path style="fill:#d4ab99; stroke:none;" d="M580 350L581 351L580 350M238 351L239 352L238 351M453 351L454 352L453 351z"/>
<path style="fill:#7b7359; stroke:none;" d="M577 351L578 352L577 351z"/>
<path style="fill:#d4ab99; stroke:none;" d="M578 351L579 352L578 351M176 352L180 356L176 352M237 352L238 353L237 352M454 352L455 353L454 352z"/>
<path style="fill:#7b7359; stroke:none;" d="M455 352L456 353L455 352M575 352L576 353L575 352z"/>
<path style="fill:#d4ab99; stroke:none;" d="M576.667 352.333L577.333 352.667L576.667 352.333M236 353L237 354L236 353M456 353L457 354L456 353z"/>
<path style="fill:#7b7359; stroke:none;" d="M457 353L458 354L457 353M573 353L574 354L573 353z"/>
<path style="fill:#d4ab99; stroke:none;" d="M574 353L575 354L574 353M235 354L236 355L235 354M458 354L459 355L458 354z"/>
<path style="fill:#7b7359; stroke:none;" d="M459 354L460 355L459 354M571 354L572 355L571 354z"/>
<path style="fill:#d4ab99; stroke:none;" d="M572 354L573 355L572 354M234 355L235 356L234 355z"/>
<path style="fill:#7b7359; stroke:none;" d="M461.667 355.333L462.333 355.667L461.667 355.333M568.667 355.333L569.333 355.667L568.667 355.333z"/>
<path style="fill:#d4ab99; stroke:none;" d="M570 355L571 356L570 355M180 356L183 358L180 356M233 356L234 357L233 356M463 356L464 357L463 356z"/>
<path style="fill:#7b7359; stroke:none;" d="M464.667 356.333L465.333 356.667L464.667 356.333M566 356L567 357L566 356z"/>
<path style="fill:#d4ab99; stroke:none;" d="M567 356L568 357L567 356M232 357L233 358L232 357M466 357L467 358L466 357z"/>
<path style="fill:#7b7359; stroke:none;" d="M467 357L468 358L467 357M563 357L564 358L563 357z"/>
<path style="fill:#d4ab99; stroke:none;" d="M564 357L565 358L564 357M231 358L232 359L231 358M469 358L470 359L469 358z"/>
<path style="fill:#7b7359; stroke:none;" d="M470.667 358.333L471.333 358.667L470.667 358.333M559.667 358.333L560.333 358.667L559.667 358.333z"/>
<path style="fill:#d4ab99; stroke:none;" d="M561 358L562 359L561 358M230 359L229 361L231 361L230 359M472.667 359.333L473.333 359.667L472.667 359.333z"/>
<path style="fill:#7b7359; stroke:none;" d="M474.667 359.333L475.333 359.667L474.667 359.333M555.667 359.333L556.333 359.667L555.667 359.333z"/>
<path style="fill:#d4ab99; stroke:none;" d="M557 359L558 360L557 359M184 360L186 362L186 360L184 360M477 360L478 361L477 360z"/>
<path style="fill:#7b7359; stroke:none;" d="M478 360L478 361L481 361L478 360M550.667 360.333L551.333 360.667L550.667 360.333z"/>
<path style="fill:#d4ab99; stroke:none;" d="M552 360L552 361L555 361L552 360M228 361L227 363L229 363L228 361M482.667 361.333L483.333 361.667L482.667 361.333z"/>
<path style="fill:#7b7359; stroke:none;" d="M484 361L484 362L487 362L484 361M544 361L544 362L547 362L544 361z"/>
<path style="fill:#d4ab99; stroke:none;" d="M547 361L547 362L550 362L547 361M186 362L188 364L188 362L186 362M489 362L489 363L492 363L489 362z"/>
<path style="fill:#7b7359; stroke:none;" d="M492 362L492 363L497 363L492 362M536 362L536 363L540 363L536 362z"/>
<path style="fill:#d4ab99; stroke:none;" d="M540 362L540 363L543 363L540 362M226 363L224 366L226 363M500 363L500 364L506 364L500 363z"/>
<path style="fill:#7b7359; stroke:none;" d="M506 363L506 364L528 364L506 363z"/>
<path style="fill:#d4ab99; stroke:none;" d="M528 363L528 364L533 364L528 363M188 364L191 367L188 364M223 366L221 369L223 366M191 367L192 368L191 367M192 368L195 370L192 368M220 369L221 370L220 369M195 370L198 372L195 370M218.667 370.333L219.333 370.667L218.667 370.333M216.667 371.333L217.333 371.667L216.667 371.333M198.667 372.333L199.333 372.667L198.667 372.333M214.667 372.333L215.333 372.667L214.667 372.333M202 373L202 374L205 374L202 373M210 373L210 374L214 374L210 373z"/>
</svg>
