<?xml version="1.0" standalone="no"?>
<!DOCTYPE svg PUBLIC "-//W3C//DTD SVG 20010904//EN"
 "http://www.w3.org/TR/2001/REC-SVG-20010904/DTD/svg10.dtd">
<svg version="1.0" xmlns="http://www.w3.org/2000/svg"
 width="900.000000pt" height="900.000000pt" viewBox="0 0 900.000000 900.000000"
 preserveAspectRatio="xMidYMid meet">

<g transform="translate(0.000000,900.000000) scale(0.100000,-0.100000)"
fill="#000000" stroke="none">
<path d="M7222 5218 l3 -773 24 -70 c67 -203 188 -345 366 -430 94 -46 185
-65 308 -65 l97 0 0 129 0 128 -108 5 c-95 4 -116 8 -175 36 -142 66 -232 191
-249 346 -4 45 -7 393 -6 774 l3 692 -133 0 -133 0 3 -772z"/>
<path d="M6205 5201 c-152 -25 -270 -85 -375 -191 -82 -83 -133 -168 -170
-285 -31 -98 -31 -261 0 -360 82 -264 289 -442 555 -477 448 -60 823 350 730
797 -38 180 -182 367 -350 453 -107 54 -276 81 -390 63z m267 -290 c308 -153
308 -582 -1 -734 -62 -30 -72 -32 -176 -32 -100 0 -115 2 -167 28 -88 43 -152
107 -195 195 -36 73 -38 80 -38 176 0 93 3 107 32 168 51 108 140 185 258 225
25 8 74 12 130 10 79 -3 99 -7 157 -36z"/>
<path d="M1404 5180 c-283 -74 -480 -310 -501 -600 -18 -257 125 -509 358
-630 110 -57 188 -73 334 -67 206 7 308 58 521 255 77 71 285 265 464 431 376
350 394 362 539 369 70 3 96 0 141 -17 226 -87 330 -340 229 -557 -28 -58
-107 -145 -162 -177 -69 -41 -150 -60 -231 -55 -39 3 -79 8 -89 13 -16 7 -17
-1 -15 -126 l3 -134 107 -3 c191 -5 331 46 463 170 85 80 141 163 180 268 36
98 46 270 21 370 -37 151 -144 307 -268 391 -212 144 -459 157 -690 37 -78
-40 -115 -70 -288 -233 -41 -38 -133 -124 -205 -191 -71 -66 -195 -181 -275
-255 -233 -217 -239 -222 -282 -250 -137 -91 -335 -70 -468 48 -47 43 -104
129 -115 176 l-7 27 293 0 294 0 185 173 c102 94 193 182 203 194 16 20 15 24
-32 95 -153 234 -442 348 -707 278z m329 -269 c34 -17 77 -44 96 -59 l34 -29
-44 -40 c-24 -22 -63 -56 -85 -76 l-41 -37 -250 0 c-137 0 -252 3 -256 6 -9
10 37 94 77 141 41 47 126 99 194 119 29 8 79 12 130 10 69 -3 94 -9 145 -35z"/>
<path d="M4545 5186 c-221 -63 -390 -220 -467 -436 l-23 -65 -3 -802 -3 -803
131 0 130 0 0 460 c0 253 3 460 6 460 4 0 30 -14 60 -30 29 -17 86 -43 126
-57 65 -24 88 -27 203 -27 115 0 139 3 211 27 197 66 350 218 422 419 23 64
26 89 26 208 1 106 -3 147 -18 190 -69 204 -210 353 -411 435 -63 26 -84 29
-205 32 -95 2 -150 -1 -185 -11z m275 -252 c71 -21 146 -70 197 -128 50 -56
68 -94 90 -182 65 -265 -188 -533 -459 -485 -239 42 -392 272 -334 501 9 35
27 83 41 105 51 88 155 167 255 194 55 15 151 12 210 -5z"/>
</g>
</svg>
